<svg viewBox="0 0 900 273" version="1.1" xmlns="http://www.w3.org/2000/svg" desc="Created with imagetracer.js version 1.2.6" ><path fill="rgb(253,253,253)" stroke="rgb(253,253,253)" stroke-width="1" opacity="0.996078431372549" d="M 745 71 L 747 71 L 747 74 L 748.5 74 Q 749.5 76.5 752 76 L 751 81 L 748 80.5 Q 749.8 79.7 748.5 79 L 746 78.5 L 748 78 L 746.5 74 L 744.5 76 L 744 75.5 L 745 74.5 L 745 71 Z " /><path fill="rgb(253,253,253)" stroke="rgb(253,253,253)" stroke-width="1" opacity="0.996078431372549" d="M 696.5 86 L 697 87.5 Q 694.8 88.7 697.5 90 L 698 88 Q 701 86.8 700 90.5 Q 698.3 91.3 699 94.5 L 700 97 L 696 98 L 696 92.5 Q 696.3 91.3 694 92 L 694 90.5 Q 695.5 90 695 87.5 L 696.5 86 Z " /><path fill="rgb(253,253,253)" stroke="rgb(253,253,253)" stroke-width="1" opacity="0.996078431372549" d="M 297.5 98 Q 298.4 99.8 301 99 L 301 101 Q 303.3 100.3 303 101.5 L 303 163 L 300.5 164 L 298.5 164 L 297.5 165 L 295.5 163 Q 294.8 164.8 294 163.5 L 295 162.5 L 295 149 Q 297.3 149.8 297 148.5 L 297 102.5 Q 298.5 102 298 99.5 Q 296.2 98.8 297.5 98 Z M 301 101 L 300 102 L 300 163 L 301 163 L 301 102 L 301 101 Z " /><path fill="rgb(253,253,253)" stroke="rgb(253,253,253)" stroke-width="1" opacity="0.996078431372549" d="M 357 98 Q 360 96.8 359 100.5 L 357 100.5 Q 357.8 102.8 355.5 102 L 355.5 103 Q 358 103.5 358.5 102 L 360 104.5 L 359 104.5 L 358.5 103 L 357 105.5 Q 358.8 106.3 358 109.5 L 357 111.5 Q 358.8 112.2 357.5 113 L 355.5 114 L 355 113.5 L 355 107.5 L 354 106.5 L 354 100 L 357 100 L 357 98 Z " /><path fill="rgb(253,253,253)" stroke="rgb(253,253,253)" stroke-width="1" opacity="0.996078431372549" d="M 407.5 98 Q 408.7 98.7 407 99.5 L 408 101.5 L 408 161.5 L 407 163.5 Q 408.7 164.3 407.5 165 L 404 162.5 Q 406 161.5 404 160.5 L 404 102.5 L 405 101.5 L 404 99 Q 406.6 99.8 407.5 98 Z " /><path fill="rgb(253,253,253)" stroke="rgb(253,253,253)" stroke-width="1" opacity="0.996078431372549" d="M 461.5 98 L 462 104 L 466 104 L 466 107 Q 463.3 108.1 464 105.5 L 463 105.5 L 462.5 108 L 461.5 106 L 460.5 108 L 460 105 Q 457 106 458 103 L 460 102.5 Q 458 101.5 460 100.5 L 461.5 98 Z " /><path fill="rgb(253,253,253)" stroke="rgb(253,253,253)" stroke-width="1" opacity="0.996078431372549" d="M 568.5 98 L 572 100.5 Q 571.2 101.7 570.5 100 L 569.5 101 L 568 101 L 568 105.5 L 569 105.5 L 570 103.5 Q 568.2 102.8 569.5 102 L 570.5 103 Q 571.3 101.3 572 102.5 Q 573.1 105.8 570.5 105 L 570.5 106 L 572 106.5 L 570.5 107 Q 569.8 105.3 569 106.5 Q 569.5 109 568 109.5 L 569 110.5 L 569 115.5 L 568 115.5 Q 568.8 112.3 567 111.5 L 567 106.5 L 566 105.5 L 566 101 Q 568.1 101.5 569 99.5 Q 567.2 98.8 568.5 98 Z " /><path fill="rgb(253,253,253)" stroke="rgb(253,253,253)" stroke-width="1" opacity="0.996078431372549" d="M 674.5 98 Q 676.5 98.9 676 101 Q 678.3 100.3 678 101.5 L 678 162 L 675.5 163 L 675 162.5 L 675 99.5 Q 673.3 98.8 674.5 98 Z " /><path fill="rgb(253,253,253)" stroke="rgb(253,253,253)" stroke-width="1" opacity="0.996078431372549" d="M 735 98 Q 738 97.6 738 98.5 L 738 114 L 733 114 L 733 112.5 Q 731 111.5 733 110.5 L 733 101.5 L 732 99.5 L 733 99.5 L 734 101.5 L 734 112.5 L 734.5 113 L 735 112.5 L 735 98 Z " /><path fill="rgb(253,253,253)" stroke="rgb(253,253,253)" stroke-width="1" opacity="0.996078431372549" d="M 607.5 99 L 611 99 L 611 100.5 L 610 101.5 L 610 162.5 L 609.5 163 L 609 162.5 L 609 104.5 L 606 100.5 L 607.5 99 Z " /><path fill="rgb(253,253,253)" stroke="rgb(253,253,253)" stroke-width="1" opacity="0.996078431372549" d="M 402.5 102 L 403 102.5 L 403 162.5 L 402 162.5 L 402 102.5 L 402.5 102 Z " /><path fill="rgb(253,253,253)" stroke="rgb(253,253,253)" stroke-width="1" opacity="0.996078431372549" d="M 523.5 109 L 524 111.5 L 525.5 113 Q 528.1 112.2 527 115.5 L 526 116.5 L 526 126.5 L 527 126.5 Q 525.8 122.8 529.5 124 Q 530.7 124.7 529 125.5 L 529 137.5 L 529.5 138 L 530.5 136 L 531 139.5 Q 530.2 140.7 529.5 139 Q 526.9 139.8 528 136.5 L 527 135.5 L 527 128 L 524 128 L 524 117.5 Q 524 116.6 521 117 L 521 114.5 L 523 111.5 Q 520.8 110.2 523.5 109 Z " /><path fill="rgb(253,253,253)" stroke="rgb(253,253,253)" stroke-width="1" opacity="0.996078431372549" d="M 562.5 111 Q 565.3 110.8 565 111.5 L 565 118.5 L 566 119.5 L 566 124.5 Q 567.5 125 567 127.5 L 565 130.5 L 565 133.5 L 563.5 136 L 563 133.5 Q 564.5 133 564 130.5 L 563 129.5 L 563 124.5 L 564 122.5 L 563 121.5 L 563 115 L 560 115 L 560 112 L 562.5 111 Z " /><path fill="rgb(253,253,253)" stroke="rgb(253,253,253)" stroke-width="1" opacity="0.996078431372549" d="M 711.5 114 L 712.5 122 L 713 114 Q 715.3 113.3 715 114.5 L 715 123 Q 712 123.8 711 121.5 L 711 114.5 L 711.5 114 Z " /><path fill="rgb(253,253,253)" stroke="rgb(253,253,253)" stroke-width="1" opacity="0.996078431372549" d="M 668.5 123 Q 671.1 122.2 670 125.5 L 669 125.5 L 668.5 124 L 668 124.5 L 668 136 L 670 136 L 670 139 L 666.5 139 L 666 138.5 L 666 125.5 Q 664.3 124.7 665.5 124 Q 668 124.5 668.5 123 Z " /><path fill="rgb(253,253,253)" stroke="rgb(253,253,253)" stroke-width="1" opacity="0.996078431372549" d="M 599.5 125 L 600 128.5 L 601 129.5 L 601.5 135 L 602 133 L 604 133 L 604 136 Q 601 136.8 600 134.5 Q 601 130.5 599 129.5 L 599.5 125 Z " /><path fill="rgb(253,253,253)" stroke="rgb(253,253,253)" stroke-width="1" opacity="0.996078431372549" d="M 330 132 Q 332.3 131.3 332 132.5 L 332 144.5 L 331 145.5 L 331 161.5 L 330.5 162 L 330 161.5 L 330 136.5 Q 332 135.5 330 134.5 L 330 132 Z " /><path fill="rgb(253,253,253)" stroke="rgb(253,253,253)" stroke-width="1" opacity="0.996078431372549" d="M 483.5 134 Q 487.7 132.7 486 137.5 L 487 138.5 L 487 161.5 L 486 161.5 L 486 140.5 L 485.5 140 L 484.5 142 L 483 138.5 L 483 136 L 485 135.5 L 483 134.5 L 483.5 134 Z " /><path fill="rgb(253,253,253)" stroke="rgb(253,253,253)" stroke-width="1" opacity="0.996078431372549" d="M 446.5 135 L 447.5 136 Q 448.3 134.2 449 135.5 Q 447 136.5 449 137.5 L 448.5 139 L 447.5 137 L 446 139.5 L 448 140 L 447.5 143 L 446.5 141 L 446 141.5 L 446 162.5 L 447 162.5 L 447 153.5 L 448 151 Q 450.3 150.3 450 151.5 L 450 157.5 L 451 157.5 L 451 153 L 453.5 153 Q 454.7 153.7 453 154.5 L 454 157.5 Q 452 158.5 454 159.5 L 454.5 161 L 455.5 158 L 456 160.5 Q 454.8 163.3 453.5 161 L 452 161.5 Q 455.7 163.3 452.5 165 Q 446.3 166.3 445 162.5 L 445 139.5 L 446 138.5 L 446.5 135 Z " /><path fill="rgb(253,253,253)" stroke="rgb(253,253,253)" stroke-width="1" opacity="0.996078431372549" d="M 596.5 135 L 599 135 L 599 140.5 L 600 141.5 L 600 148 L 597 148 L 597 160.5 Q 597.3 161.3 594.5 161 L 592 160 Q 591 157 594 158 L 594.5 160 L 595 159.5 L 595 147.5 L 595.5 147 Q 596.3 148.8 597 147.5 Q 596.3 145.3 598.5 146 L 598.5 145 Q 596 144.5 595.5 146 Q 594.2 145.2 596 144.5 L 597 142.5 Q 595.3 141.8 596 138.5 L 597 136.5 Q 595.2 135.7 596.5 135 Z " /><path fill="rgb(253,253,253)" stroke="rgb(253,253,253)" stroke-width="1" opacity="0.996078431372549" d="M 234.5 137 L 235 137.5 L 235 160.5 L 236 161.5 L 234 162 L 234 137.5 L 234.5 137 Z " /><path fill="rgb(253,253,253)" stroke="rgb(253,253,253)" stroke-width="1" opacity="0.996078431372549" d="M 230.5 139 L 231 139.5 L 231 164.5 L 232 166.5 L 231 166.5 L 230 164.5 L 230 139.5 L 230.5 139 Z " /><path fill="rgb(253,253,253)" stroke="rgb(253,253,253)" stroke-width="1" opacity="0.996078431372549" d="M 482.5 146 Q 483.7 146.7 482 147.5 L 483.5 153 Q 484.3 151.3 485 152.5 L 485 162.5 L 486 163.5 L 483.5 165 L 480.5 165 L 478 163.5 L 480 162.5 L 478 160.5 L 479 159.5 L 478 157.5 L 480 157 L 480 153 L 478.5 153 L 478.5 152 L 481 153.5 L 481.5 157 L 483 154.5 L 481 151.5 L 482 149.5 L 481 147.5 L 482.5 146 Z " /><path fill="rgb(253,253,253)" stroke="rgb(253,253,253)" stroke-width="1" opacity="0.996078431372549" d="M 669 149 L 673.5 149 L 674 149.5 L 674 165 Q 670.2 165.8 669 162.5 L 669 149 Z " /><path fill="rgb(253,253,253)" stroke="rgb(253,253,253)" stroke-width="1" opacity="0.996078431372549" d="M 735 149 Q 738 148.6 738 149.5 L 738 164.5 Q 737.2 165.7 736.5 164 L 735 163.5 Q 737 162.5 735 161.5 Q 733.8 155.3 736 152.5 L 734 152.5 Q 735.8 151.6 735 149 Z " /><path fill="rgb(253,253,253)" stroke="rgb(253,253,253)" stroke-width="1" opacity="0.996078431372549" d="M 536.5 152 L 537 156.5 Q 535.2 157.3 536 160.5 L 537 160.5 Q 536.5 157.5 538.5 157 L 540 157 L 540 160 L 538 160.5 Q 541.8 162.3 538.5 164 L 536.5 165 L 536 163.5 Q 538.3 162.3 535.5 161 Q 532.9 161.8 534 158.5 L 536 155.5 Q 534 154.5 536 153.5 L 536.5 152 Z " /><path fill="rgb(253,253,253)" stroke="rgb(253,253,253)" stroke-width="1" opacity="0.996078431372549" d="M 194 157 Q 197 156.3 198 158.5 L 196 161.5 L 198 162.5 L 195 163 L 194.5 160 L 193.5 164 L 192.5 162 Q 191.8 163.8 191 162.5 L 191 160 L 194 160 L 194 157 Z " /><path fill="rgb(253,253,253)" stroke="rgb(253,253,253)" stroke-width="1" opacity="0.996078431372549" d="M 362.5 160 L 365.5 162 Q 366.2 160.3 367 161.5 L 367.5 163 L 368.5 161 L 371 162 L 371 165 L 369.5 165 L 365.5 163 L 365.5 165 L 364 163.5 Q 366.3 162.3 363.5 161 Q 361.1 160.9 362.5 160 Z " /><path fill="rgb(254,254,254)" stroke="rgb(254,254,254)" stroke-width="1" opacity="1" d="M 1.5 0 L 899.5 0 L 900 0.5 L 900 273 L 0.5 273 L 0 272.5 L 0 1.5 L 1.5 0 Z M 600 53 L 599 54 L 577 54 Q 575 54 576 56 L 561 56 L 560 57 L 546 57 L 545 58 L 532 58 Q 530 58 531 60 L 522 60 L 521 61 L 510 61 Q 508 61 509 63 L 500 63 L 499 64 L 490 64 L 489 65 L 481 65 Q 479 65 480 67 L 473 67 L 472 68 L 463 68 L 462 69 L 454 69 L 453 71 L 447 71 Q 445 72 447 73 Q 446 74 446 72 L 439 72 Q 437 72 438 74 L 431 74 L 430 75 L 424 75 L 423 76 L 417 76 Q 415 76 416 78 L 411 78 L 410 79 L 403 79 L 402 80 L 397 80 L 397 82 L 392 82 L 391 83 L 386 83 L 384 85 L 375 86 L 374 87 L 369 87 L 369 89 L 365 89 L 364 90 L 360 90 L 359 91 L 353 91 Q 351 91 352 93 L 348 93 L 347 94 L 339 94 L 339 98 L 339 98 L 297 98 L 297 149 L 272 149 L 272 139 L 292 139 L 292 123 L 272 123 L 272 114 L 296 114 Q 297 111 295 111 L 295 99 L 295 98 L 233 98 L 233 137 L 233 137 L 232 134 L 229 134 L 229 137 Q 226 136 226 138 Q 223 137 224 140 L 222 140 L 219 142 Q 215 141 216 144 L 214 145 L 212 145 L 211 146 L 209 146 L 209 149 L 204 149 L 204 152 L 201 152 L 201 155 Q 198 154 199 157 L 194 157 L 194 160 L 191 160 Q 190 163 192 164 L 189 164 Q 190 167 188 168 L 188 170 L 189 172 L 184 173 L 184 179 L 188 179 Q 187 182 189 183 L 189 186 L 192 186 Q 191 189 194 188 L 194 191 L 199 191 L 200 192 Q 202 191 201 194 L 205 194 L 206 195 Q 210 194 209 197 L 212 198 L 216 198 Q 216 200 220 199 L 222 201 Q 225 200 227 202 L 233 202 L 234 203 L 241 203 Q 242 203 241 205 L 253 205 L 254 206 L 270 206 Q 271 206 270 208 L 338 208 Q 339 208 338 206 L 361 206 L 362 205 L 380 205 L 382 203 L 393 203 L 394 202 L 407 202 L 408 201 L 418 201 Q 419 201 418 199 L 429 199 L 430 198 L 440 198 L 441 197 L 450 197 Q 451 197 450 195 L 459 195 L 460 194 L 469 194 Q 470 194 469 192 L 476 192 L 477 191 L 484 191 L 485 190 L 491 190 Q 492 190 491 188 L 499 188 L 500 187 L 507 187 L 508 186 L 514 186 Q 515 186 514 184 L 521 184 L 522 183 L 528 183 Q 529 183 528 181 L 533 181 L 534 180 L 541 180 L 542 179 L 547 179 L 547 177 L 553 177 L 554 176 L 560 176 L 561 175 L 565 175 L 565 173 L 570 173 L 571 172 L 575 172 L 575 170 L 582 170 L 583 169 L 591 169 L 591 166 L 568 166 L 567 167 L 562 167 L 561 168 L 556 168 L 556 170 L 552 170 L 551 171 L 545 171 L 545 173 L 540 173 L 539 174 L 534 174 L 533 175 L 527 175 Q 525 175 526 177 L 521 177 L 520 178 L 515 178 L 514 179 L 508 179 Q 506 179 507 181 L 498 181 L 497 182 L 491 182 Q 489 182 490 184 L 483 184 L 482 185 L 475 185 L 474 186 L 466 186 Q 464 186 465 188 L 456 188 L 455 189 L 444 189 L 443 190 L 431 190 Q 429 190 430 192 L 419 192 L 418 193 L 402 193 Q 400 193 401 195 L 375 195 L 374 196 L 335 196 L 334 195 L 315 195 Q 313 195 314 193 L 300 193 L 299 192 L 291 192 Q 289 192 290 190 L 284 190 L 283 189 L 278 189 L 277 188 L 272 188 L 272 186 L 269 186 L 268 185 L 264 185 L 263 184 Q 259 185 260 182 L 258 181 Q 254 182 255 179 L 253 178 L 250 178 L 250 175 L 248 175 L 248 171 L 245 171 L 245 166 L 234 166 L 233 166 L 234 165 L 334 165 L 334 162 L 333 161 L 333 134 L 334 133 L 334 134 L 334 147 L 335 148 L 335 155 L 334 156 L 334 158 L 339 158 L 338 165 L 366 165 L 367 164 Q 369 164 370 165 L 408 165 L 408 98 L 362 98 Q 360 98 361 96 L 365 96 L 366 95 L 371 95 L 371 93 L 376 93 L 377 92 L 381 92 L 382 91 L 386 91 L 386 89 L 392 89 L 393 88 L 398 88 L 399 87 L 403 87 L 403 85 L 410 85 L 411 84 L 416 84 L 416 82 L 424 82 L 425 81 L 430 81 L 431 80 L 437 80 Q 438 80 437 78 L 445 78 L 446 77 L 453 77 L 454 76 L 462 76 Q 463 76 462 74 L 471 74 L 472 73 L 482 73 Q 483 73 482 71 L 490 71 L 491 70 L 503 70 L 504 69 L 516 69 Q 517 69 516 67 L 531 67 L 532 66 L 553 66 L 554 65 L 615 65 L 616 66 L 634 66 L 635 67 L 644 67 Q 645 67 644 69 L 652 69 L 653 70 L 659 70 L 660 71 L 664 71 L 664 73 L 669 73 L 670 74 L 674 74 L 674 76 Q 677 75 678 77 L 681 77 L 681 80 L 685 80 L 686 81 L 687 81 L 687 84 L 691 84 L 691 87 L 694 87 L 694 92 L 696 92 L 696 98 L 696 98 L 674 98 L 674 149 L 647 149 L 647 139 L 670 139 Q 671 136 669 136 L 669 127 L 670 126 Q 670 123 670 123 L 647 123 L 647 114 L 669 114 L 669 98 L 569 98 Q 568 98 568 101 Q 566 100 566 102 L 566 119 L 565 119 L 565 111 L 561 111 L 560 111 L 560 98 L 471 98 L 470 99 L 470 105 Q 467 105 467 106 L 467 118 L 466 118 Q 467 114 464 115 L 464 108 Q 464 106 466 107 L 466 104 L 462 104 L 462 98 L 413 98 L 413 162 Q 413 163 411 162 Q 411 165 412 165 L 521 165 L 521 162 Q 519 163 519 162 L 519 105 Q 521 104 521 106 L 521 117 Q 524 117 524 118 L 524 128 L 527 128 L 527 136 Q 529 136 528 139 Q 530 138 531 141 L 531 150 Q 531 150 534 150 L 534 151 L 534 161 Q 534 162 536 161 L 536 165 L 540 165 L 540 168 L 543 168 Q 543 165 544 165 L 594 165 L 594 162 L 593 162 L 593 161 L 597 161 L 597 149 Q 597 148 600 148 L 600 148 L 600 137 L 601 136 L 604 136 L 604 133 L 602 133 L 602 124 L 606 124 Q 607 121 605 121 L 605 112 Q 605 110 607 111 L 607 110 L 608 110 L 608 162 Q 608 163 606 162 Q 606 165 607 165 L 738 165 L 738 149 L 715 149 L 715 139 L 733 139 L 733 127 L 734 126 Q 734 123 734 123 L 715 123 L 715 114 L 738 114 L 738 98 L 750 98 L 750 93 L 752 93 L 752 90 L 753 89 Q 754 86 752 86 L 753 84 Q 754 81 752 81 L 752 76 Q 749 77 749 74 L 747 74 L 747 71 L 743 71 L 743 68 Q 740 69 740 67 L 735 67 L 735 65 L 733 64 L 731 64 L 730 63 L 725 63 L 725 61 L 721 61 L 720 60 L 715 60 L 715 58 L 709 58 L 708 57 L 699 57 L 698 56 L 689 56 Q 687 56 688 54 L 672 54 L 671 53 L 600 53 Z " /><path fill="rgb(254,254,254)" stroke="rgb(254,254,254)" stroke-width="1" opacity="1" d="M 349 98 L 356.5 98 Q 357.8 97.7 357 100 L 354 100 L 354 108 L 349 108 L 349 98 Z " /><path fill="rgb(255,255,255)" stroke="rgb(255,255,255)" stroke-width="1" opacity="1" d="M 600.5 53 L 669.5 53 L 670.5 54 L 686.5 54 L 688.5 56 L 696.5 56 L 697.5 57 L 705.5 57 L 706 57.5 L 705.5 58 L 697.5 58 L 696.5 57 L 687 57 Q 687.8 54.7 686.5 55 L 670.5 55 L 669.5 54 L 600.5 54 L 599.5 55 L 578.5 55 L 578.5 54 L 599.5 54 L 600.5 53 Z " /><path fill="rgb(255,255,255)" stroke="rgb(255,255,255)" stroke-width="1" opacity="1" d="M 561.5 56 L 576.5 56 L 577 56.5 L 576.5 57 L 561.5 57 L 560.5 58 L 546.5 58 L 545.5 59 L 533.5 59 L 533.5 58 L 545.5 58 L 546.5 57 L 560.5 57 L 561.5 56 Z " /><path fill="rgb(255,255,255)" stroke="rgb(255,255,255)" stroke-width="1" opacity="1" d="M 521.5 60 L 531.5 60 L 532 60.5 L 531.5 61 L 522.5 61 L 521.5 62 L 510 62 Q 510.8 64.3 509.5 64 L 501.5 64 L 501.5 63 L 508.5 63 L 510.5 61 L 520.5 61 L 521.5 60 Z " /><path fill="rgb(255,255,255)" stroke="rgb(255,255,255)" stroke-width="1" opacity="1" d="M 714.5 60 L 719.5 60 Q 720.3 61.8 723.5 61 L 725.5 63 Q 728 62.5 728.5 64 L 732.5 64 L 735 65 Q 733.8 68 737.5 67 L 737.5 68 L 734 68 Q 735.1 65.3 732.5 66 L 731.5 65 L 728.5 65 L 727.5 64 L 724 64 L 724 62 L 719.5 62 Q 718.5 60 714.5 61 L 714.5 60 Z " /><path fill="rgb(255,255,255)" stroke="rgb(255,255,255)" stroke-width="1" opacity="1" d="M 489.5 64 L 499.5 64 L 500 64.5 L 499.5 65 L 490.5 65 L 489.5 66 L 481 66 Q 481.8 68.3 480.5 68 L 473.5 68 L 472.5 69 L 464.5 69 L 463.5 70 L 456 70 Q 456.8 72.3 455.5 72 L 447.5 72 L 447.5 71 L 454.5 71 L 455.5 69 L 463.5 69 L 464.5 68 L 471.5 68 L 472.5 67 L 479.5 67 L 481.5 65 L 488.5 65 L 489.5 64 Z " /><path fill="rgb(255,255,255)" stroke="rgb(255,255,255)" stroke-width="1" opacity="1" d="M 552.5 64 L 615.5 64 L 616 64.5 L 615.5 65 L 552.5 65 L 551.5 66 L 530.5 66 L 530.5 65 L 551.5 65 L 552.5 64 Z " /><path fill="rgb(255,255,255)" stroke="rgb(255,255,255)" stroke-width="1" opacity="1" d="M 617.5 65 L 634.5 65 L 635.5 66 L 644.5 66 L 646.5 68 L 652.5 68 L 653.5 69 L 659.5 69 L 660.5 70 L 665 70 L 665 72 L 669.5 72 L 670.5 73 L 675 73 Q 673.8 76 677.5 75 L 677.5 76 L 674 76 Q 674.8 73.7 673.5 74 L 669.5 74 L 668.5 73 L 665.5 73 L 663.5 71 Q 660.2 71.8 659.5 70 L 653.5 70 L 652.5 69 L 645 69 Q 645.8 66.7 644.5 67 L 635.5 67 L 634.5 66 L 617.5 66 L 617.5 65 Z " /><path fill="rgb(255,255,255)" stroke="rgb(255,255,255)" stroke-width="1" opacity="1" d="M 515 66 L 528.5 66 L 529 66.5 L 528.5 67 L 516.5 67 L 514.5 69 L 502.5 69 L 502.5 68 L 514.5 68 Q 515.8 68.3 515 66 Z " /><path fill="rgb(255,255,255)" stroke="rgb(255,255,255)" stroke-width="1" opacity="1" d="M 489.5 69 L 500.5 69 L 501 69.5 L 500.5 70 L 489.5 70 L 488.5 71 L 479.5 71 L 479.5 70 L 488.5 70 L 489.5 69 Z " /><path fill="rgb(255,255,255)" stroke="rgb(255,255,255)" stroke-width="1" opacity="1" d="M 438 72 L 446 72.5 L 439 73 Q 439.8 75.3 438.5 75 L 431.5 75 L 430.5 76 L 424.5 76 L 423.5 77 L 417 77 L 417 79 L 412.5 79 L 411.5 80 L 404.5 80 L 403.5 81 L 398.5 81 L 398.5 80 L 403.5 80 L 404.5 79 L 410.5 79 Q 411.5 77 415.5 78 L 417.5 76 L 423.5 76 L 424.5 75 L 430.5 75 L 431.5 74 L 438 74 L 438 72 Z " /><path fill="rgb(255,255,255)" stroke="rgb(255,255,255)" stroke-width="1" opacity="1" d="M 461 73 L 469 73.5 L 468.5 74 L 462.5 74 L 460.5 76 L 452.5 76 L 451.5 77 L 444.5 77 L 443.5 78 L 437 78 Q 437.8 80.3 436.5 80 L 429.5 80 L 428.5 81 L 422.5 81 L 421.5 82 L 415.5 82 L 415.5 81 L 421.5 81 L 422.5 80 L 428.5 80 L 429.5 79 L 436 79 Q 435.3 76.7 436.5 77 L 443.5 77 L 444.5 76 L 451.5 76 L 452.5 75 L 461 75 L 461 73 Z " /><path fill="rgb(255,255,255)" stroke="rgb(255,255,255)" stroke-width="1" opacity="1" d="M 749.5 78 L 752 79.5 L 752 91.5 Q 752.3 92.3 749.5 92 Q 748.8 93.8 748 92.5 Q 748.9 90.5 751 91 L 751 79.5 Q 751.4 78.5 749.5 79 L 749.5 78 Z " /><path fill="rgb(255,255,255)" stroke="rgb(255,255,255)" stroke-width="1" opacity="1" d="M 684.5 79 Q 686.5 80.7 690 80 L 690 83 L 692 83 L 692 86 L 693.5 86 Q 694.2 84.2 695 85.5 L 694.5 90 L 694 87 Q 691.9 87.5 691 85.5 Q 691.7 82.9 689 84 L 689 81 L 686.5 81 L 684 79.5 L 684.5 79 Z " /><path fill="rgb(255,255,255)" stroke="rgb(255,255,255)" stroke-width="1" opacity="1" d="M 409.5 83 L 415 83.5 L 409.5 84 L 408.5 85 L 403 85 L 403 87 L 397.5 87 L 396.5 88 L 391.5 88 L 390.5 89 L 386 89 L 386 91 L 381.5 91 L 380.5 92 L 375.5 92 Q 374.8 93.8 371.5 93 L 369.5 95 L 364.5 95 Q 363.6 96.8 361 96 Q 360.3 98.3 361.5 98 L 406.5 98 L 408 100.5 L 407 100.5 Q 407.5 98.6 406.5 99 L 360 99 L 359.5 103 L 359 98 L 346.5 98 Q 345.8 97.8 346 100.5 L 345 100.5 Q 345.5 98.6 344.5 99 L 298 99 L 297.5 102 L 297 99.5 L 298.5 98 L 340.5 98 L 341.5 97 L 360 97 Q 358.7 93.7 363.5 95 L 364.5 94 L 370 94 L 370 92 L 374.5 92 L 375.5 91 L 379.5 91 L 380.5 90 L 385 90 L 385 88 L 389.5 88 L 390.5 87 L 396.5 87 L 397.5 86 L 402 86 Q 401.3 83.7 402.5 84 L 408.5 84 L 409.5 83 Z " /><path fill="rgb(255,255,255)" stroke="rgb(255,255,255)" stroke-width="1" opacity="1" d="M 380.5 85 L 386 85.5 L 380.5 86 L 379.5 87 L 375.5 87 L 374.5 88 L 370 88 L 370 90 L 365.5 90 L 364.5 91 Q 360.5 90 359.5 92 L 354.5 92 L 354.5 91 L 358.5 91 L 359.5 90 L 363.5 90 L 364.5 89 L 369 89 L 369 87 L 373.5 87 L 374.5 86 L 379.5 86 L 380.5 85 Z " /><path fill="rgb(255,255,255)" stroke="rgb(255,255,255)" stroke-width="1" opacity="1" d="M 698.5 97 L 747.5 97 L 748 97.5 L 747.5 98 L 735 98 L 735 112.5 L 734.5 113 L 734 112.5 L 734 99 L 675 99 L 675 164 L 736.5 164 L 737 164.5 L 736.5 165 L 674 165 L 674 99.5 L 675.5 98 L 697.5 98 L 698.5 97 Z " /><path fill="rgb(255,255,255)" stroke="rgb(255,255,255)" stroke-width="1" opacity="1" d="M 233 98 L 294.5 98 L 295 98.5 L 295 112.5 L 293.5 114 L 272 114 L 272 123 L 292 123 L 292 137.5 L 290.5 139 L 272 139 L 272 149 L 295 149 L 295 162.5 L 294 162.5 L 294 150 L 271 150 L 271 138 L 291 138 L 291 124 L 271 124 L 271 113 L 294 113 L 294 99 L 234 99 L 234 164 L 296.5 164 L 297 164.5 L 296.5 165 L 233.5 165 L 233 165.5 L 233.5 166 L 243 166 L 243 170.5 Q 242.7 171.8 245 171 L 245 173.5 L 250 176.5 Q 249.2 179.1 252.5 178 L 256 181.5 L 255.5 182 L 254 182 Q 255.1 179.3 252.5 180 Q 251.6 178.3 249 179 L 249 176 L 246.5 176 L 244 175 L 243.5 172 L 242.5 174 L 242 167 L 232 167 L 232 138.5 Q 232 137.5 227.5 138 L 225 139 Q 226.3 142 222.5 141 L 219 143.5 L 218.5 145 L 218 143.5 L 219 141 L 224 140 Q 222.8 137 226.5 138 L 227.5 137 L 233 137 L 233 98 Z " /><path fill="rgb(255,255,255)" stroke="rgb(255,255,255)" stroke-width="1" opacity="1" d="M 413 98 L 460.5 98 L 461 98.5 L 460.5 99 L 414 99 L 414 164 L 446.5 164 L 446.5 165 L 413 165 L 413 98 Z " /><path fill="rgb(255,255,255)" stroke="rgb(255,255,255)" stroke-width="1" opacity="1" d="M 470 98 L 558.5 98 L 560 99.5 L 560 110.5 Q 559.6 111.5 561.5 111 L 563 113.5 L 562 113.5 Q 562.7 110.9 560 112 L 560 115 Q 563 114.6 563 115.5 L 563 129.5 L 565 129.5 L 564 130.5 L 563 135.5 L 564 138 Q 561.7 138.8 562 137.5 L 562 116.5 L 562 116 Q 559 116.4 559 115.5 L 559 99 L 520 99 L 520 102.5 L 519 103.5 L 519 165 L 484.5 165 L 484 164.5 L 484.5 164 L 518 164 L 518 99 L 471 99 L 471 108.5 Q 471.3 109.8 469 109 L 470 106.5 L 470 98 Z " /><path fill="rgb(255,255,255)" stroke="rgb(255,255,255)" stroke-width="1" opacity="1" d="M 570.5 98 L 668.5 98 L 669 98.5 L 669 114 L 647 114 L 647 123 L 667.5 123 L 669 124.5 L 669 135.5 L 668.5 136 L 668 135.5 L 668 124 L 644.5 124 L 644 123.5 L 646 123 L 646 114.5 L 645 113.5 L 645.5 113 L 668 113 L 668 99.5 L 667.5 99 L 570.5 99 L 570.5 98 Z " /><path fill="rgb(255,255,255)" stroke="rgb(255,255,255)" stroke-width="1" opacity="1" d="M 300.5 101 L 301 101.5 L 301 162.5 L 300 162.5 L 300 101.5 L 300.5 101 Z " /><path fill="rgb(255,255,255)" stroke="rgb(255,255,255)" stroke-width="1" opacity="1" d="M 606.5 101 L 607 101.5 L 607 109.5 L 605 111.5 L 605 122.5 L 603.5 124 Q 601.6 123.5 602 124.5 L 602 134.5 L 600 136.5 L 599.5 141 L 599 140.5 L 599 130.5 L 600 130.5 L 600.5 135 L 601 134.5 L 601 120 Q 604 120.4 604 119.5 L 604 108.5 L 606 107.5 L 606 101.5 L 606.5 101 Z " /><path fill="rgb(255,255,255)" stroke="rgb(255,255,255)" stroke-width="1" opacity="1" d="M 610.5 101 L 611 101.5 L 611 162.5 L 610 162.5 L 610 101.5 L 610.5 101 Z " /><path fill="rgb(255,255,255)" stroke="rgb(255,255,255)" stroke-width="1" opacity="1" d="M 608.5 104 L 609 104.5 L 609 164 L 670.5 164 L 671 164.5 L 670.5 165 L 608 165 L 608 104.5 L 608.5 104 Z " /><path fill="rgb(255,255,255)" stroke="rgb(255,255,255)" stroke-width="1" opacity="1" d="M 463.5 105 L 464 105.5 L 464 118 Q 467 118.4 467 117.5 L 467 108.5 L 468 108.5 L 468 121.5 L 467.5 122 L 466 120.5 Q 467.8 119.8 466.5 119 Q 462.9 119.4 463 118.5 L 463 105.5 L 463.5 105 Z " /><path fill="rgb(255,255,255)" stroke="rgb(255,255,255)" stroke-width="1" opacity="1" d="M 566.5 106 L 567 106.5 L 567 124.5 L 566 124.5 L 566 106.5 L 566.5 106 Z " /><path fill="rgb(255,255,255)" stroke="rgb(255,255,255)" stroke-width="1" opacity="1" d="M 350.5 110 L 351 110.5 L 351 122.5 L 351.5 123 L 352 119 L 354.5 118 L 355 120 L 353 120 L 353 124 L 351.5 124 L 350 122.5 L 350 110.5 L 350.5 110 Z " /><path fill="rgb(255,255,255)" stroke="rgb(255,255,255)" stroke-width="1" opacity="1" d="M 732.5 112 L 733 114 L 713 114 L 713 121.5 Q 711.3 122.2 712.5 123 L 733 123 L 733 137.5 L 731.5 139 L 713 139 L 713 149 L 734.5 149 Q 735.3 148.8 735 151.5 L 734 151.5 Q 734.5 149.6 733.5 150 L 710 150 L 710 138 L 732 138 L 732 124 L 710 124 L 710 113 L 731.5 113 L 732.5 112 Z " /><path fill="rgb(255,255,255)" stroke="rgb(255,255,255)" stroke-width="1" opacity="1" d="M 665.5 125 L 666 125.5 L 666 139 L 647 139 L 647 149 L 668.5 149 Q 669.3 148.8 669 151.5 L 668 151.5 Q 668.5 149.6 667.5 150 L 646 150 L 646 138 L 665 138 L 665 125.5 L 665.5 125 Z " /><path fill="rgb(255,255,255)" stroke="rgb(255,255,255)" stroke-width="1" opacity="1" d="M 486.5 128 Q 488.4 127.5 488 128.5 L 488 162.5 L 487 162.5 L 487 138.5 L 486 137.5 L 486 131.5 L 487 129.5 Q 485.3 128.8 486.5 128 Z " /><path fill="rgb(255,255,255)" stroke="rgb(255,255,255)" stroke-width="1" opacity="1" d="M 444 129 Q 446.3 128.3 446 129.5 L 446 139 Q 449 138.6 449 139.5 L 449 149.5 L 451 150.5 L 451 157.5 L 450 157.5 L 450 151.5 L 448 150.5 L 448 140.5 Q 448.4 139.5 446.5 140 Q 445.8 138.3 445 139.5 L 445 162.5 L 444.5 163 L 444 162.5 L 444 129 Z " /><path fill="rgb(255,255,255)" stroke="rgb(255,255,255)" stroke-width="1" opacity="1" d="M 332 131 Q 334.1 130.5 335 132.5 L 335 145.5 L 335 146 Q 338 145.6 338 146.5 L 338 156.5 L 339 156.5 L 339.5 154 L 340 154.5 L 340 164 L 364.5 164 L 367 163 L 366.5 161 Q 365.3 163.3 364 160.5 L 367 160 L 367 147.5 Q 367 146.6 370 147 L 370 135.5 Q 369.8 134.8 372.5 135 Q 373.7 135.7 372 136.5 L 372 164 L 407 164 L 407.5 162 L 408 163.5 L 406.5 165 L 371 165 L 371 148.5 L 370.5 148 L 368 149.5 L 370 150.5 L 368 151 L 368 162.5 L 366.5 164 L 364.5 165 L 339 165 L 339 158.5 L 337 157.5 L 337 147.5 L 337 147 Q 334 147.4 334 146.5 L 334 132.5 L 333 132.5 L 333 161.5 L 334 163.5 L 332.5 165 L 298.5 165 L 298.5 164 L 332.5 164 Q 333.5 164.4 333 162.5 L 332 161.5 L 332 131 Z " /><path fill="rgb(255,255,255)" stroke="rgb(255,255,255)" stroke-width="1" opacity="1" d="M 485.5 140 L 486 140.5 L 486 162.5 L 485 162.5 L 485 140.5 L 485.5 140 Z " /><path fill="rgb(255,255,255)" stroke="rgb(255,255,255)" stroke-width="1" opacity="1" d="M 446.5 141 L 447 141.5 L 447 162.5 L 446 162.5 L 446 141.5 L 446.5 141 Z " /><path fill="rgb(255,255,255)" stroke="rgb(255,255,255)" stroke-width="1" opacity="1" d="M 594.5 144 L 595 144.5 L 595 159.5 Q 594.1 161.5 592 161 L 592 164.5 L 591.5 165 L 543.5 165 Q 542.6 165 543 168 L 540 168 L 540 165 L 537.5 165 L 537.5 164 L 591 164 L 591 157 Q 594 157.4 594 156.5 L 594 144.5 L 594.5 144 Z " /><path fill="rgb(255,255,255)" stroke="rgb(255,255,255)" stroke-width="1" opacity="1" d="M 209.5 148 L 210 150 L 207 150 L 207 153 L 202 153 L 202 156 Q 199 155 200 158 L 197.5 158 L 197.5 157 L 199 157 L 199 155 Q 201.7 156.1 201 153.5 Q 202.2 151 206 152 L 206 149 L 208.5 149 L 209.5 148 Z " /><path fill="rgb(255,255,255)" stroke="rgb(255,255,255)" stroke-width="1" opacity="1" d="M 453.5 164 L 479.5 164 L 480 164.5 L 479.5 165 L 453.5 165 L 453.5 164 Z " /><path fill="rgb(255,255,255)" stroke="rgb(255,255,255)" stroke-width="1" opacity="1" d="M 568.5 166 L 588.5 166 L 589 166.5 L 588.5 167 L 568.5 167 L 567.5 168 L 562.5 168 Q 561.8 169.7 558.5 169 L 558.5 168 Q 561.8 168.8 562.5 167 L 567.5 167 L 568.5 166 Z " /><path fill="rgb(255,255,255)" stroke="rgb(255,255,255)" stroke-width="1" opacity="1" d="M 189.5 167 L 190 167.5 L 190 183.5 L 189 183.5 L 189 167.5 L 189.5 167 Z " /><path fill="rgb(255,255,255)" stroke="rgb(255,255,255)" stroke-width="1" opacity="1" d="M 580.5 168 L 588.5 168 L 589 168.5 L 588.5 169 L 580.5 169 L 579.5 170 L 575 170 L 575 172 L 569.5 172 L 568.5 173 Q 565.3 172.3 564.5 174 L 564 172 L 574 171 L 574 169 L 579.5 169 L 580.5 168 Z " /><path fill="rgb(255,255,255)" stroke="rgb(255,255,255)" stroke-width="1" opacity="1" d="M 562.5 172 L 563 175 L 558.5 175 L 557.5 176 L 552.5 176 L 551.5 177 L 546.5 177 L 546.5 176 L 551.5 176 L 552.5 175 L 557.5 175 L 558.5 174 L 562 174 L 562.5 172 Z " /><path fill="rgb(255,255,255)" stroke="rgb(255,255,255)" stroke-width="1" opacity="1" d="M 540.5 173 L 546.5 173 L 547 173.5 L 546.5 174 L 540.5 174 L 539.5 175 L 534.5 175 L 533.5 176 L 527 176 L 527 178 L 522.5 178 L 521.5 179 L 515.5 179 L 514.5 180 L 508 180 Q 508.8 182.3 507.5 182 L 500.5 182 L 499.5 183 L 492.5 183 L 492.5 182 L 498.5 182 L 499.5 181 L 507 181 Q 506.3 178.7 507.5 179 L 513.5 179 L 514.5 178 L 520.5 178 Q 521.5 176 525.5 177 L 527.5 175 L 533.5 175 L 534.5 174 L 539.5 174 L 540.5 173 Z " /><path fill="rgb(255,255,255)" stroke="rgb(255,255,255)" stroke-width="1" opacity="1" d="M 540.5 178 L 546 178.5 L 540.5 179 L 539.5 180 L 533.5 180 Q 532.5 182 528.5 181 L 526.5 183 L 520.5 183 L 519.5 184 L 514 184 Q 514.8 186.3 513.5 186 L 506.5 186 L 505.5 187 L 498.5 187 L 497.5 188 L 491 188 Q 491.8 190.3 490.5 190 L 484.5 190 L 483.5 191 L 475.5 191 L 475.5 190 L 482.5 190 L 483.5 189 L 490 189 Q 489.3 186.7 490.5 187 L 497.5 187 L 498.5 186 L 504.5 186 L 505.5 185 L 513 185 Q 512.3 182.7 513.5 183 L 519.5 183 L 520.5 182 L 527 182 L 527 180 L 531.5 180 L 532.5 179 L 539.5 179 L 540.5 178 Z " /><path fill="rgb(255,255,255)" stroke="rgb(255,255,255)" stroke-width="1" opacity="1" d="M 257.5 182 L 263.5 185 L 272 186 Q 270.7 189.3 275.5 188 L 276.5 189 L 281.5 189 L 282.5 190 L 290 190 Q 289.3 192.3 290.5 192 L 297.5 192 L 298.5 193 L 310.5 193 L 312 194.5 L 311.5 196 L 311 194 L 298.5 194 L 297.5 193 L 289 193 Q 289.8 190.7 288.5 191 L 281.5 191 L 280.5 190 L 276.5 190 L 275.5 189 L 271 189 L 271 187 L 266.5 187 L 265.5 186 L 262.5 186 Q 261.6 184.3 259 185 Q 260.1 182.3 257.5 183 L 257.5 182 Z " /><path fill="rgb(255,255,255)" stroke="rgb(255,255,255)" stroke-width="1" opacity="1" d="M 475.5 185 L 482.5 185 L 483 185.5 L 482.5 186 L 475.5 186 L 474.5 187 L 466 187 Q 466.8 189.3 465.5 189 L 456.5 189 L 455.5 190 L 445.5 190 L 444.5 191 L 432.5 191 L 432.5 190 L 444.5 190 L 445.5 189 L 455.5 189 L 456.5 188 L 465 188 Q 464.3 185.7 465.5 186 L 474.5 186 L 475.5 185 Z " /><path fill="rgb(255,255,255)" stroke="rgb(255,255,255)" stroke-width="1" opacity="1" d="M 197.5 190 L 199.5 190 L 202 191 Q 200.7 194.3 205.5 193 L 206.5 194 L 210 194 Q 208.9 196.7 211.5 196 L 212.5 197 L 216.5 197 L 217.5 198 L 222 198 L 222 200 L 226.5 200 L 227.5 201 L 233.5 201 L 234.5 202 L 241.5 202 L 242 202.5 L 241.5 203 L 234.5 203 L 233.5 202 L 227.5 202 L 226.5 201 L 221 201 L 221 199 L 216.5 199 L 215.5 198 L 212.5 198 Q 211.6 196.2 209 197 Q 210.3 194 206.5 195 Q 205.8 193.3 202.5 194 Q 201 191.5 197.5 191 L 197.5 190 Z " /><path fill="rgb(255,255,255)" stroke="rgb(255,255,255)" stroke-width="1" opacity="1" d="M 466 191 L 474 191.5 L 467 192 Q 467.8 194.3 466.5 194 L 458.5 194 L 457.5 195 L 449.5 195 L 449.5 194 L 457.5 194 L 458.5 193 L 466 193 L 466 191 Z " /><path fill="rgb(255,255,255)" stroke="rgb(255,255,255)" stroke-width="1" opacity="1" d="M 419.5 192 L 430.5 192 L 431 192.5 L 430.5 193 L 419.5 193 L 418.5 194 L 402 194 Q 402.8 196.3 401.5 196 L 376.5 196 L 376.5 195 L 400.5 195 L 402.5 193 L 418.5 193 L 419.5 192 Z " /><path fill="rgb(255,255,255)" stroke="rgb(255,255,255)" stroke-width="1" opacity="1" d="M 313.5 195 L 330.5 195 L 331 195.5 L 330.5 196 L 313.5 196 L 313.5 195 Z " /><path fill="rgb(255,255,255)" stroke="rgb(255,255,255)" stroke-width="1" opacity="1" d="M 333.5 196 L 374.5 196 L 375 196.5 L 374.5 197 L 333.5 197 L 333.5 196 Z " /><path fill="rgb(255,255,255)" stroke="rgb(255,255,255)" stroke-width="1" opacity="1" d="M 439.5 196 L 447.5 196 L 448 196.5 L 447.5 197 L 439.5 197 L 438.5 198 L 428.5 198 L 428.5 197 L 438.5 197 L 439.5 196 Z " /><path fill="rgb(255,255,255)" stroke="rgb(255,255,255)" stroke-width="1" opacity="1" d="M 417 198 L 426.5 198 L 427 198.5 L 426.5 199 L 418.5 199 L 416.5 201 L 406.5 201 L 406.5 200 L 416.5 200 Q 417.8 200.3 417 198 Z " /><path fill="rgb(255,255,255)" stroke="rgb(255,255,255)" stroke-width="1" opacity="1" d="M 392.5 201 L 404.5 201 L 405 201.5 L 404.5 202 L 392.5 202 L 391.5 203 L 379.5 203 L 379.5 202 L 391.5 202 L 392.5 201 Z " /><path fill="rgb(255,255,255)" stroke="rgb(255,255,255)" stroke-width="1" opacity="1" d="M 360.5 204 L 376.5 204 L 377 204.5 L 376.5 205 L 360.5 205 L 359.5 206 L 337.5 206 L 337.5 205 L 359.5 205 L 360.5 204 Z " /><path fill="rgb(255,255,255)" stroke="rgb(255,255,255)" stroke-width="1" opacity="1" d="M 273.5 207 L 334.5 207 L 335 207.5 L 334.5 208 L 273.5 208 L 273.5 207 Z " /><path fill="rgb(44,133,190)" stroke="rgb(44,133,190)" stroke-width="1" opacity="0.996078431372549" d="M 234.5 99 L 235.5 102 Q 236.2 100.3 237 101.5 L 237 161.5 L 234.5 164 L 234 162 L 236 161.5 L 235 160.5 L 235 137.5 L 234 136.5 L 234 99.5 L 234.5 99 Z " /><path fill="rgb(44,133,190)" stroke="rgb(44,133,190)" stroke-width="1" opacity="0.996078431372549" d="M 402.5 99 L 404 101.5 L 404 161.5 L 403 161.5 L 403 101.5 Q 401.3 100.8 402.5 99 Z " /><path fill="rgb(44,133,190)" stroke="rgb(44,133,190)" stroke-width="1" opacity="0.996078431372549" d="M 517.5 99 L 518 100.5 Q 516 101.5 518 102.5 L 518 162.5 Q 518 163.4 515 163 L 515 101.5 Q 514.7 100.3 517 101 L 517.5 99 Z " /><path fill="rgb(44,133,190)" stroke="rgb(44,133,190)" stroke-width="1" opacity="0.996078431372549" d="M 238.5 101 L 239 101.5 L 239 161.5 L 238 161.5 L 238 101.5 L 238.5 101 Z " /><path fill="rgb(44,133,190)" stroke="rgb(44,133,190)" stroke-width="1" opacity="0.996078431372549" d="M 242.5 101 L 285.5 101 L 286 101.5 L 285.5 102 L 242.5 102 L 242.5 101 Z " /><path fill="rgb(44,133,190)" stroke="rgb(44,133,190)" stroke-width="1" opacity="0.996078431372549" d="M 308.5 101 L 339.5 101 L 340 101.5 L 339.5 102 L 308.5 102 L 308.5 101 Z " /><path fill="rgb(44,133,190)" stroke="rgb(44,133,190)" stroke-width="1" opacity="0.996078431372549" d="M 364.5 101 L 397.5 101 L 398 101.5 L 397.5 102 L 364.5 102 L 364.5 101 Z " /><path fill="rgb(44,133,190)" stroke="rgb(44,133,190)" stroke-width="1" opacity="0.996078431372549" d="M 414 101 Q 417 100.6 417 101.5 L 417 162 Q 414 162.4 414 161.5 L 414 101 Z M 416 103 L 415 104 L 415 161 L 416 161 L 416 104 L 416 103 Z " /><path fill="rgb(44,133,190)" stroke="rgb(44,133,190)" stroke-width="1" opacity="0.996078431372549" d="M 418.5 101 L 419 101.5 L 419 161.5 L 418 161.5 L 418 101.5 L 418.5 101 Z " /><path fill="rgb(44,133,190)" stroke="rgb(44,133,190)" stroke-width="1" opacity="0.996078431372549" d="M 422.5 101 L 450.5 101 L 451 101.5 L 450.5 102 L 422.5 102 L 422.5 101 Z " /><path fill="rgb(44,133,190)" stroke="rgb(44,133,190)" stroke-width="1" opacity="0.996078431372549" d="M 481.5 101 L 509.5 101 L 510 101.5 L 509.5 102 L 481.5 102 L 481.5 101 Z " /><path fill="rgb(44,133,190)" stroke="rgb(44,133,190)" stroke-width="1" opacity="0.996078431372549" d="M 513.5 101 L 514 101.5 L 514 161.5 L 513 161.5 L 513 101.5 L 513.5 101 Z " /><path fill="rgb(44,133,190)" stroke="rgb(44,133,190)" stroke-width="1" opacity="0.996078431372549" d="M 523.5 101 L 524 101.5 L 524 108.5 L 525.5 110 Q 526.3 108.3 527 109.5 L 527 113 L 525.5 113 L 524 111.5 L 523.5 109 Q 522.7 110.7 522 109.5 L 522 102.5 L 523.5 101 Z " /><path fill="rgb(44,133,190)" stroke="rgb(44,133,190)" stroke-width="1" opacity="0.996078431372549" d="M 527.5 101 L 549.5 101 L 550 101.5 L 549.5 102 L 527.5 102 L 527.5 101 Z " /><path fill="rgb(44,133,190)" stroke="rgb(44,133,190)" stroke-width="1" opacity="0.996078431372549" d="M 577.5 101 L 599.5 101 L 600 101.5 L 599.5 102 L 577.5 102 L 577.5 101 Z " /><path fill="rgb(44,133,190)" stroke="rgb(44,133,190)" stroke-width="1" opacity="0.996078431372549" d="M 611 101 Q 614 100.6 614 101.5 L 614 162 L 611 161.5 L 612 160.5 L 612 103.5 L 611 101 Z " /><path fill="rgb(44,133,190)" stroke="rgb(44,133,190)" stroke-width="1" opacity="0.996078431372549" d="M 618.5 101 L 659.5 101 L 660 101.5 L 659.5 102 L 618.5 102 L 618.5 101 Z " /><path fill="rgb(44,133,190)" stroke="rgb(44,133,190)" stroke-width="1" opacity="0.996078431372549" d="M 682.5 101 L 726.5 101 L 727 101.5 L 726.5 102 L 682.5 102 L 682.5 101 Z " /><path fill="rgb(44,133,190)" stroke="rgb(44,133,190)" stroke-width="1" opacity="0.996078431372549" d="M 291.5 111 L 294 111.5 L 290.5 113 L 274.5 113 L 274.5 112 L 290.5 112 L 291.5 111 Z " /><path fill="rgb(44,133,190)" stroke="rgb(44,133,190)" stroke-width="1" opacity="0.996078431372549" d="M 269.5 112 L 269.5 114 Q 271.4 113.5 271 114.5 L 271 123 L 266 124 Q 264.9 121.3 267.5 122 Q 268.3 123.7 269 122.5 L 269 114.5 Q 269.4 113.5 267.5 114 Q 266.7 115.7 266 114.5 Q 265.2 111.9 268.5 113 L 269.5 112 Z " /><path fill="rgb(44,133,190)" stroke="rgb(44,133,190)" stroke-width="1" opacity="0.996078431372549" d="M 468 112 L 471 112 L 471 115.5 L 470 117.5 L 471 118.5 L 470 119.5 Q 472 120.5 470 121.5 L 471 123.5 L 469 124 L 469 128 L 466 128 L 466 125 Q 468.3 125.8 468 124.5 L 468 112 Z " /><path fill="rgb(44,133,190)" stroke="rgb(44,133,190)" stroke-width="1" opacity="0.996078431372549" d="M 567.5 112 L 568 115.5 L 569 116.5 Q 567.5 117 568 119.5 Q 569.5 120 569 122.5 Q 567 123.5 569 124.5 L 569 130.5 L 568.5 131 Q 567.7 129.3 567 130.5 Q 567.5 133 566 133.5 Q 567.7 134.2 566.5 135 L 565 135.5 L 567 137.5 L 566.5 138 L 564 138.5 L 566 140.5 L 565.5 141 L 562 141 L 562 138 Q 565.3 139.3 564 134.5 L 565 133.5 L 565 130 Q 567.7 131.1 567 128.5 Q 568.8 127.7 568 124.5 Q 566.5 124 567 121.5 Q 569 120.5 567 119.5 L 567 112.5 L 567.5 112 Z " /><path fill="rgb(44,133,190)" stroke="rgb(44,133,190)" stroke-width="1" opacity="0.996078431372549" d="M 647.5 112 L 664.5 112 L 665 112.5 L 664.5 113 L 647.5 113 L 647.5 112 Z " /><path fill="rgb(44,133,190)" stroke="rgb(44,133,190)" stroke-width="1" opacity="0.996078431372549" d="M 711.5 112 L 731.5 112 L 732 112.5 L 731.5 113 L 711.5 113 L 711.5 112 Z " /><path fill="rgb(44,133,190)" stroke="rgb(44,133,190)" stroke-width="1" opacity="0.996078431372549" d="M 599.5 116 Q 602.3 117.3 600 118.5 L 601 121.5 Q 599 122.5 601 123.5 L 600.5 129 L 600 125.5 L 599 124.5 Q 601 123.5 599 122.5 L 600 120.5 Q 597.9 119.4 599.5 116 Z " /><path fill="rgb(44,133,190)" stroke="rgb(44,133,190)" stroke-width="1" opacity="0.996078431372549" d="M 484 124 Q 486.9 123.5 488 126.5 L 486 127 L 486 130.5 L 485 131.5 L 486 134 Q 483.3 135.1 484 132.5 Q 482.2 131.8 483.5 131 L 485 130.5 Q 483.3 129.6 484 127 L 486 126.5 L 484 126 L 484 124 Z " /><path fill="rgb(44,133,190)" stroke="rgb(44,133,190)" stroke-width="1" opacity="0.996078431372549" d="M 372 125 L 376.5 125 L 377 125.5 L 377 161.5 L 376 161.5 L 376 130.5 L 375.5 130 L 375 135 L 371 134.5 L 373 134 Q 374.1 131.3 371.5 132 Q 369.5 131.5 370 128.5 L 371 128.5 L 371.5 130 L 372 125 Z " /><path fill="rgb(44,133,190)" stroke="rgb(44,133,190)" stroke-width="1" opacity="0.996078431372549" d="M 729.5 126 L 730.5 133 L 731.5 127 L 732 134 L 729.5 135 L 729 134.5 L 729 126.5 L 729.5 126 Z " /><path fill="rgb(44,133,190)" stroke="rgb(44,133,190)" stroke-width="1" opacity="0.996078431372549" d="M 269 136 L 271 136.5 Q 269 137.5 271 138.5 L 271 149.5 L 270 150.5 Q 271.7 151.2 270.5 152 Q 267.9 152.7 269 150 L 266 150 L 266 148.5 Q 266.7 147.2 267.5 149 Q 269.4 149.5 269 148.5 L 269 139 L 266.5 140 L 266 138 L 269 138 L 269 136 Z " /><path fill="rgb(44,133,190)" stroke="rgb(44,133,190)" stroke-width="1" opacity="0.996078431372549" d="M 373 136 Q 375.3 135.3 375 136.5 L 375 163 Q 372 163.4 372 162.5 L 372 146.5 L 373 145.5 L 373 136 Z " /><path fill="rgb(44,133,190)" stroke="rgb(44,133,190)" stroke-width="1" opacity="0.996078431372549" d="M 331.5 145 L 332 145.5 L 332 163 L 330 162.5 L 331 161.5 L 331 145.5 L 331.5 145 Z " /><path fill="rgb(44,133,190)" stroke="rgb(44,133,190)" stroke-width="1" opacity="0.996078431372549" d="M 274 150 L 291.5 150 L 294 151.5 L 293.5 152 L 274 152 L 274 150 Z " /><path fill="rgb(44,133,190)" stroke="rgb(44,133,190)" stroke-width="1" opacity="0.996078431372549" d="M 649 150 L 667.5 150 Q 668.8 149.7 668 152 L 649.5 152 Q 648.3 152.3 649 150 Z " /><path fill="rgb(44,133,190)" stroke="rgb(44,133,190)" stroke-width="1" opacity="0.996078431372549" d="M 715 150 L 731.5 150 Q 732.8 149.7 732 152 L 715.5 152 Q 714.3 152.3 715 150 Z " /><path fill="rgb(7,109,177)" stroke="rgb(7,109,177)" stroke-width="1" opacity="0.996078431372549" d="M 239.5 101 L 243 104.5 L 243 159.5 L 241.5 162 L 240.5 161 Q 239.7 162.8 239 161.5 L 240 160.5 L 240 102.5 Q 238.2 101.7 239.5 101 Z " /><path fill="rgb(7,109,177)" stroke="rgb(7,109,177)" stroke-width="1" opacity="0.996078431372549" d="M 399.5 101 L 401 102.5 L 401 159.5 L 400 160.5 Q 401.7 161.2 400.5 162 Q 397.5 162.5 397 160.5 L 397 103.5 L 399.5 101 Z " /><path fill="rgb(7,109,177)" stroke="rgb(7,109,177)" stroke-width="1" opacity="0.996078431372549" d="M 419.5 101 L 422 103.5 L 422 160.5 L 419.5 162 Q 418.2 161.2 420 160.5 L 420 103.5 Q 418.3 102.8 419.5 101 Z " /><path fill="rgb(7,109,177)" stroke="rgb(7,109,177)" stroke-width="1" opacity="0.996078431372549" d="M 512.5 101 L 513 102.5 L 512 103.5 L 512 160.5 Q 513.7 161.2 512.5 162 L 510 161 L 510 103.5 L 512.5 101 Z " /><path fill="rgb(7,109,177)" stroke="rgb(7,109,177)" stroke-width="1" opacity="0.996078431372549" d="M 552.5 101 L 553 106.5 L 555 108.5 L 555 115.5 L 556.5 119 L 557.5 117 L 558 118.5 L 557 119.5 L 558 120.5 L 557 121.5 L 558 122.5 Q 556 123.5 558 124.5 L 558 131.5 L 559.5 135 L 560.5 126 L 561 126.5 L 561 134.5 Q 559.5 135 560 137.5 L 562 137.5 L 561 138.5 Q 562.7 139.2 561.5 140 L 560 140.5 Q 560.8 142.8 564.5 142 L 567 140.5 L 564 138.5 L 566.5 138 Q 567.2 139.8 568 138.5 L 568 135.5 L 567 133.5 L 568 133.5 L 568.5 135 L 570 133.5 L 570 130.5 Q 571.5 130 571 127.5 Q 569.3 126.6 570 124 Q 572.7 122.9 572 125.5 Q 574 126.5 573 130.5 Q 571 131.5 573 132.5 Q 573.5 135.5 571.5 136 L 569 136 L 569 141.5 L 565.5 144 L 560.5 144 L 557 140.5 L 557 125 Q 554.9 125.5 554 123.5 L 554 109.5 Q 554.4 108.5 552.5 109 L 551 106.5 L 552 105.5 Q 550 104.5 552 103.5 L 552.5 101 Z " /><path fill="rgb(7,109,177)" stroke="rgb(7,109,177)" stroke-width="1" opacity="0.996078431372549" d="M 574.5 101 L 576 103.5 L 575 104.5 L 576 105.5 Q 574 106.5 576 107.5 L 576 115.5 Q 576.4 116.5 574.5 116 L 572 117 L 572 114.5 L 574 111.5 L 574 109.5 Q 572 108.5 574 107.5 L 574 101.5 L 574.5 101 Z " /><path fill="rgb(7,109,177)" stroke="rgb(7,109,177)" stroke-width="1" opacity="0.996078431372549" d="M 603.5 101 L 604 102.5 L 603 104.5 Q 604.8 105.3 603.5 106 Q 601.6 105.5 602 106.5 L 602 111.5 L 601 111.5 L 600.5 108 L 599.5 111 L 599 110.5 L 599 103.5 L 600.5 102 Q 603 102.5 603.5 101 Z " /><path fill="rgb(7,109,177)" stroke="rgb(7,109,177)" stroke-width="1" opacity="0.996078431372549" d="M 615.5 101 L 618 104.5 L 618 159.5 L 615.5 162 L 615 161.5 L 616 160.5 L 616 103.5 Q 614.3 102.8 615.5 101 Z " /><path fill="rgb(7,109,177)" stroke="rgb(7,109,177)" stroke-width="1" opacity="0.996078431372549" d="M 237.5 102 L 238 102.5 L 238 160.5 L 237 160.5 L 237 102.5 L 237.5 102 Z " /><path fill="rgb(7,109,177)" stroke="rgb(7,109,177)" stroke-width="1" opacity="0.996078431372549" d="M 680.5 102 L 682 103.5 L 682 161 Q 679.7 161.8 680 160.5 L 680 102.5 L 680.5 102 Z " /><path fill="rgb(7,109,177)" stroke="rgb(7,109,177)" stroke-width="1" opacity="0.996078431372549" d="M 363 104 L 365 104 L 365 108.5 L 362 111.5 L 362 122.5 L 360.5 124 L 358 124.5 L 359 125.5 L 357 127.5 L 355.5 130 Q 351.8 131 353 128 Q 355.9 128.5 357 125.5 L 357 123.5 L 360 119.5 Q 359 114 361 111.5 L 360 109.5 Q 360.9 107.5 363 108 L 363 104 Z " /><path fill="rgb(7,109,177)" stroke="rgb(7,109,177)" stroke-width="1" opacity="0.996078431372549" d="M 266.5 109 Q 269.8 107.9 269 110.5 L 268 111.5 Q 269.8 112.2 268.5 113 Q 267.5 111 266.5 113 Q 264.6 112.5 265 113.5 L 265 122.5 Q 265.9 124.5 268 124 Q 266.8 127 270.5 126 Q 272 127 269.5 128 L 266 128 Q 267.1 125.3 264.5 126 L 263 124.5 L 263 112.5 L 266.5 109 Z " /><path fill="rgb(7,109,177)" stroke="rgb(7,109,177)" stroke-width="1" opacity="0.996078431372549" d="M 641.5 109 L 644 110.5 L 640 113.5 Q 642 114.5 640 115.5 L 640 121.5 L 641 122.5 Q 639.3 123.2 640.5 124 L 642.5 123 Q 643.7 123.7 642 124.5 L 643.5 126 L 645 126.5 Q 644 128.8 641 128 Q 642.1 125.3 639.5 126 L 637 122.5 L 638 121.5 L 638 115.5 Q 636.5 115 637 112.5 L 641.5 109 Z " /><path fill="rgb(7,109,177)" stroke="rgb(7,109,177)" stroke-width="1" opacity="0.996078431372549" d="M 707.5 109 L 708.5 110 Q 709.3 108.3 710 109.5 Q 708.9 112.5 706 112 L 706 124.5 L 706.5 125 Q 707.3 123.3 708 124.5 Q 707.3 126.8 709.5 126 Q 712 127 710.5 128 L 708.5 128 L 706 127 Q 706.5 124.5 704 123.5 L 705 122.5 L 705 114.5 Q 703 113.5 705 112.5 L 707.5 109 Z " /><path fill="rgb(7,109,177)" stroke="rgb(7,109,177)" stroke-width="1" opacity="0.996078431372549" d="M 456.5 110 L 457.5 112 L 459.5 111 L 459.5 112 Q 457.3 111.3 458 113.5 L 460 116.5 Q 458.5 117 459 119.5 L 463 122.5 L 462 124.5 L 463.5 126 L 465.5 124 L 466 124.5 Q 464 125.5 466 126.5 Q 465.3 128.8 467.5 128 Q 468.8 130.3 470 127.5 L 470.5 124 L 471.5 126 L 472.5 121 L 473 121.5 L 473 128.5 Q 471.5 132.5 464.5 131 L 458 124.5 L 458 114 Q 455.9 114.5 455 112.5 L 456.5 110 Z " /><path fill="rgb(7,109,177)" stroke="rgb(7,109,177)" stroke-width="1" opacity="0.996078431372549" d="M 597.5 112 Q 600.5 111.5 601 113.5 Q 600.2 114.7 599.5 113 L 598 114.5 L 597 116.5 L 597 124.5 Q 598.7 125.2 597.5 126 Q 596.8 124.3 596 125.5 Q 595.3 127.8 597.5 127 L 597.5 128 L 595.5 127 L 594 129.5 L 594 135.5 L 593 136.5 Q 594.5 137 594 139.5 L 591 143.5 Q 591.5 146 590 146.5 L 590 149.5 Q 592 150.5 590 151.5 L 590 156.5 L 591 157.5 L 589 158 L 588.5 155 L 587 156.5 L 586.5 162 L 586 161.5 L 586 150 Q 588.1 150.5 589 148.5 L 589 138.5 Q 588.7 137.3 591 138 L 591 135.5 L 592 134.5 L 592 126.5 L 594.5 124 Q 596.4 124.5 596 123.5 L 596 113.5 L 597.5 112 Z " /><path fill="rgb(7,109,177)" stroke="rgb(7,109,177)" stroke-width="1" opacity="0.996078431372549" d="M 530.5 118 L 535 119 L 535 124.5 L 534 125.5 Q 535.5 126 535 128.5 L 537 130.5 L 537 138.5 L 538 139.5 L 536 140 L 535.5 134 L 534.5 135 L 533.5 134 Q 532.8 135.8 532 134.5 Q 531.3 130.3 534 129.5 Q 532 128.5 534 127.5 L 533 125.5 Q 534.8 124.7 533.5 124 L 532 124 L 532 127.5 L 531 127.5 L 531 120.5 Q 531.3 119.8 528.5 120 L 528.5 119 L 530.5 118 Z " /><path fill="rgb(7,109,177)" stroke="rgb(7,109,177)" stroke-width="1" opacity="0.996078431372549" d="M 484.5 121 Q 489.8 119.8 491 122.5 Q 490.3 125.1 493 124 L 493 128.5 Q 492 131 491 129.5 Q 490.5 127 492 126.5 L 488.5 123 L 484.5 123 Q 481.8 124.3 484 125.5 L 483.5 128 L 482.5 125 L 481.5 130 L 481 129.5 L 481 123.5 L 484.5 121 Z " /><path fill="rgb(7,109,177)" stroke="rgb(7,109,177)" stroke-width="1" opacity="0.996078431372549" d="M 330.5 122 L 335.5 122 L 339 125.5 Q 339.8 130.3 336.5 131 L 336 129.5 L 337 127.5 L 333.5 124 L 332.5 124 L 329 126.5 Q 330 130.3 327 129 L 327 125.5 L 330.5 122 Z " /><path fill="rgb(7,109,177)" stroke="rgb(7,109,177)" stroke-width="1" opacity="0.996078431372549" d="M 372.5 122 L 376.5 122 L 379.5 124 L 381 124 L 381 128.5 L 380 129.5 L 380 161 L 377.5 162 Q 376.2 161.2 378 160.5 L 378 126.5 L 375.5 124 L 373.5 124 Q 372.5 126.5 370 126 L 370 130.5 L 369 131.5 Q 371.3 132.8 368.5 134 Q 366.3 133.3 367 135.5 L 366 136.5 L 366 141.5 L 368 141.5 L 365 144.5 L 366 145.5 L 367 147.5 Q 366 150 365 148.5 L 364.5 145 L 363 147.5 L 363 149.5 Q 365 150.5 363 151.5 L 365 155.5 Q 364 158 363 156.5 L 364 154 L 361 154 L 361 156.5 Q 360 158 359 155.5 L 359 153 Q 362 153.4 362 152.5 L 362 141 Q 365 141.4 365 140.5 L 365 128.5 L 368.5 125 L 370 125 Q 368.9 122.3 371.5 123 L 372.5 122 Z " /><path fill="rgb(7,109,177)" stroke="rgb(7,109,177)" stroke-width="1" opacity="0.996078431372549" d="M 441 124 L 445.5 124 L 446.5 125 L 449 124 Q 448 127 451 126 L 451 129.5 L 452 132 Q 454.3 131.3 454 132.5 L 454 141.5 L 455 144 Q 457.1 143.5 458 145.5 L 458 154.5 L 461 157.5 L 461 159.5 Q 460 162 459 160.5 Q 460.1 157.2 457.5 158 Q 456.7 159.8 456 158.5 L 457 157.5 Q 455 156.5 457 155.5 Q 455 153 456 147.5 L 454.5 146 Q 453.8 147.7 453 146.5 Q 455 145.5 453 144.5 L 453 135.5 Q 450.3 133.7 449.5 130 Q 448.5 132 447.5 130 L 446 129.5 L 447 128.5 L 446 127.5 Q 447.7 126.7 446.5 126 L 443 126.5 L 444 127.5 L 443 128.5 Q 444.7 129.3 443.5 130 Q 442.5 128 441.5 130 Q 439.6 129.5 440 130.5 L 440 160.5 L 439 160.5 L 439 126.5 Q 438.7 125.3 441 126 L 441 124 Z " /><path fill="rgb(7,109,177)" stroke="rgb(7,109,177)" stroke-width="1" opacity="0.996078431372549" d="M 660.5 128 L 661 133.5 L 658.5 135 L 657.5 134 L 647.5 134 L 647 133.5 L 647.5 133 L 657.5 133 L 660 134 L 660.5 128 Z " /><path fill="rgb(7,109,177)" stroke="rgb(7,109,177)" stroke-width="1" opacity="0.996078431372549" d="M 441.5 131 L 442 131.5 L 442 160.5 L 441 160.5 L 441 131.5 L 441.5 131 Z " /><path fill="rgb(7,109,177)" stroke="rgb(7,109,177)" stroke-width="1" opacity="0.996078431372549" d="M 481.5 131 Q 482.7 131.7 481 132.5 L 482.5 134 L 483.5 132 L 484 133.5 Q 482.7 136.3 481.5 134 L 479 136.5 L 480 138.5 L 477.5 139 Q 476.2 138.2 478 137.5 L 477 136.5 Q 476.5 133.5 478.5 133 L 481.5 131 Z " /><path fill="rgb(7,109,177)" stroke="rgb(7,109,177)" stroke-width="1" opacity="0.996078431372549" d="M 491 131 Q 493.7 129.9 493 132.5 L 492 133.5 L 492 160.5 L 491.5 161 L 491 160.5 L 491 131 Z " /><path fill="rgb(7,109,177)" stroke="rgb(7,109,177)" stroke-width="1" opacity="0.996078431372549" d="M 267.5 133 L 272 133.5 L 270.5 135 L 268 135.5 L 269 137.5 L 268 137.5 L 267.5 136 L 265 138.5 L 265 149.5 L 267.5 152 L 268 151.5 L 268.5 150 L 269 151.5 Q 267.2 152.2 268.5 153 Q 271.5 152.5 272 154.5 L 267.5 155 L 263 151.5 L 263 136.5 L 265.5 134 L 267.5 133 Z " /><path fill="rgb(7,109,177)" stroke="rgb(7,109,177)" stroke-width="1" opacity="0.996078431372549" d="M 641.5 133 L 646 133.5 L 644.5 135 L 642 135.5 Q 643.7 136.3 642.5 137 Q 641.8 135.3 641 136.5 L 640 138.5 Q 642 139.5 640 140.5 L 640 147.5 L 641 148.5 Q 639 149.5 641 150.5 L 641.5 152 Q 642.3 150.2 643 151.5 Q 641.3 152.2 642.5 153 Q 645.5 152.5 646 154.5 L 641.5 155 Q 640.5 152.5 638 153 L 637 150.5 L 637 148.5 L 638 147.5 L 638 140.5 Q 636.5 140 637 137.5 L 638 135 Q 640.5 135.5 641.5 133 Z " /><path fill="rgb(7,109,177)" stroke="rgb(7,109,177)" stroke-width="1" opacity="0.996078431372549" d="M 707.5 133 L 721.5 133 L 722 133.5 L 721.5 134 L 711.5 134 L 710.5 135 L 708.5 135 L 706 136 L 705.5 138 L 705 136.5 L 707.5 133 Z " /><path fill="rgb(7,109,177)" stroke="rgb(7,109,177)" stroke-width="1" opacity="0.996078431372549" d="M 341.5 146 Q 343.8 145.3 343 147.5 L 345 149.5 L 345 157.5 L 347 160.5 Q 346 163 345 161.5 Q 345.5 159 344 158.5 L 344 152 L 341 151.5 L 342 149.5 L 340 149.5 L 342 147.5 Q 340.3 146.8 341.5 146 Z " /><path fill="rgb(7,109,177)" stroke="rgb(7,109,177)" stroke-width="1" opacity="0.996078431372549" d="M 705.5 150 L 706 152 L 708.5 153 L 710.5 153 L 711.5 154 L 725.5 154 Q 726.5 152 727.5 154 Q 730.5 153.5 731 155.5 Q 729.8 161.3 733 162.5 Q 732.2 163.7 731.5 162 L 729.5 161 Q 728.2 163.3 727 160.5 L 727 154.5 L 726.5 154 L 725.5 155 L 707.5 155 L 705 151.5 L 705.5 150 Z " /><path fill="rgb(7,109,177)" stroke="rgb(7,109,177)" stroke-width="1" opacity="0.996078431372549" d="M 287.5 153 L 290 154.5 L 290 160.5 L 289.5 161 L 289 154 L 286.5 155 L 273.5 155 L 273.5 154 L 286.5 154 L 287.5 153 Z " /><path fill="rgb(7,109,177)" stroke="rgb(7,109,177)" stroke-width="1" opacity="0.996078431372549" d="M 662.5 153 L 664 154.5 L 664 160.5 L 663 160.5 L 663 154.5 L 662.5 154 L 661.5 155 L 647.5 155 L 647.5 154 L 661.5 154 L 662.5 153 Z " /><path fill="rgb(0,6,100)" stroke="rgb(0,6,100)" stroke-width="1" opacity="0.996078431372549" d="M 237 99 L 288.5 99 Q 289.8 98.7 289 101 L 237.5 101 Q 236.3 101.3 237 99 Z " /><path fill="rgb(0,6,100)" stroke="rgb(0,6,100)" stroke-width="1" opacity="0.996078431372549" d="M 303 99 L 342.5 99 Q 343.8 98.7 343 101 L 303.5 101 Q 302.3 101.3 303 99 Z " /><path fill="rgb(0,6,100)" stroke="rgb(0,6,100)" stroke-width="1" opacity="0.996078431372549" d="M 360 99 L 401.5 99 Q 402.8 98.7 402 101 L 360.5 101 Q 359.3 101.3 360 99 Z " /><path fill="rgb(0,6,100)" stroke="rgb(0,6,100)" stroke-width="1" opacity="0.996078431372549" d="M 417 99 L 457.5 99 Q 458.8 98.7 458 101 L 417.5 101 Q 416.3 101.3 417 99 Z " /><path fill="rgb(0,6,100)" stroke="rgb(0,6,100)" stroke-width="1" opacity="0.996078431372549" d="M 473 99 L 514.5 99 Q 515.8 98.7 515 101 L 475.5 101 L 474.5 100 Q 473.7 101.7 473 100.5 L 473 99 Z " /><path fill="rgb(0,6,100)" stroke="rgb(0,6,100)" stroke-width="1" opacity="0.996078431372549" d="M 522 99 L 553.5 99 Q 554.8 98.7 554 101 L 522.5 101 Q 521.3 101.3 522 99 Z " /><path fill="rgb(0,6,100)" stroke="rgb(0,6,100)" stroke-width="1" opacity="0.996078431372549" d="M 572 99 L 605.5 99 Q 606.8 98.7 606 101 L 573.5 101 Q 572.6 100.9 573 104.5 L 572 104.5 L 572 99 Z " /><path fill="rgb(0,6,100)" stroke="rgb(0,6,100)" stroke-width="1" opacity="0.996078431372549" d="M 614 99 L 664.5 99 Q 665.8 98.7 665 101 L 614.5 101 Q 613.3 101.3 614 99 Z " /><path fill="rgb(0,6,100)" stroke="rgb(0,6,100)" stroke-width="1" opacity="0.996078431372549" d="M 678 99 L 731.5 99 Q 732.8 98.7 732 101 L 679 101 L 679 161.5 L 680.5 163 L 733.5 163 L 734 163.5 L 733.5 164 L 677.5 164 Q 676.2 163.2 678 162.5 L 678 99 Z " /><path fill="rgb(0,6,100)" stroke="rgb(0,6,100)" stroke-width="1" opacity="0.996078431372549" d="M 303.5 102 L 304 102.5 L 304 162.5 L 304.5 163 Q 305.5 161 306.5 163 L 327.5 163 L 329 161.5 L 329 131.5 L 329.5 131 L 330 131.5 L 330 162.5 L 331 163.5 L 330.5 164 L 303 164 L 303 102.5 L 303.5 102 Z " /><path fill="rgb(0,6,100)" stroke="rgb(0,6,100)" stroke-width="1" opacity="0.996078431372549" d="M 286.5 110 L 287.5 111 Q 288.3 109.3 289 110.5 Q 289.5 112.4 288.5 112 L 272.5 112 L 272.5 111 L 285.5 111 L 286.5 110 Z " /><path fill="rgb(0,6,100)" stroke="rgb(0,6,100)" stroke-width="1" opacity="0.996078431372549" d="M 661.5 110 L 663.5 111 Q 664.3 109.3 665 110.5 Q 665.5 112.4 664.5 112 L 647.5 112 L 647.5 111 L 660.5 111 L 661.5 110 Z " /><path fill="rgb(0,6,100)" stroke="rgb(0,6,100)" stroke-width="1" opacity="0.996078431372549" d="M 727.5 110 L 729.5 111 L 732 110 Q 732.8 112.3 731.5 112 L 711.5 112 L 711.5 111 L 726.5 111 L 727.5 110 Z " /><path fill="rgb(0,6,100)" stroke="rgb(0,6,100)" stroke-width="1" opacity="0.996078431372549" d="M 274.5 124 L 289 124 L 289 136 L 272.5 136 L 272 135.5 L 272.5 135 L 288 135 L 288 126.5 Q 288.4 125.5 286.5 126 L 285.5 125 L 274.5 125 L 274.5 124 Z " /><path fill="rgb(0,6,100)" stroke="rgb(0,6,100)" stroke-width="1" opacity="0.996078431372549" d="M 648.5 124 L 663 124 L 663 136 L 646.5 136 L 646 135.5 L 646.5 135 L 662 135 L 662 126.5 L 660.5 125 L 648.5 125 L 648.5 124 Z " /><path fill="rgb(0,6,100)" stroke="rgb(0,6,100)" stroke-width="1" opacity="0.996078431372549" d="M 711.5 135 L 728.5 135 L 729 135.5 L 728.5 136 L 711.5 136 L 711.5 135 Z " /><path fill="rgb(0,6,100)" stroke="rgb(0,6,100)" stroke-width="1" opacity="0.996078431372549" d="M 272.5 152 L 291.5 152 L 292 152.5 Q 290.8 155.3 289.5 153 L 272.5 153 L 272.5 152 Z " /><path fill="rgb(0,6,100)" stroke="rgb(0,6,100)" stroke-width="1" opacity="0.996078431372549" d="M 646.5 152 L 667.5 152 L 668 152.5 L 667.5 153 L 646.5 153 L 646.5 152 Z " /><path fill="rgb(0,6,100)" stroke="rgb(0,6,100)" stroke-width="1" opacity="0.996078431372549" d="M 711.5 152 L 731.5 152 L 732 152.5 L 731.5 153 L 711.5 153 L 711.5 152 Z " /><path fill="rgb(0,6,100)" stroke="rgb(0,6,100)" stroke-width="1" opacity="0.996078431372549" d="M 540.5 159 L 541 162 L 543.5 163 L 586.5 163 Q 587 161.5 589.5 162 Q 592 163 590.5 164 L 540.5 164 L 540 163.5 L 540.5 159 Z " /><path fill="rgb(0,6,100)" stroke="rgb(0,6,100)" stroke-width="1" opacity="0.996078431372549" d="M 290.5 162 L 294 163.5 L 293.5 164 L 236.5 164 L 236.5 163 L 289.5 163 L 290.5 162 Z " /><path fill="rgb(0,6,100)" stroke="rgb(0,6,100)" stroke-width="1" opacity="0.996078431372549" d="M 343.5 162 L 344.5 163 Q 345.5 161 346.5 163 L 359.5 163 L 361.5 162 Q 364 163 362.5 164 L 343.5 164 Q 342.2 164.3 343.5 162 Z " /><path fill="rgb(0,6,100)" stroke="rgb(0,6,100)" stroke-width="1" opacity="0.996078431372549" d="M 375.5 162 L 376.5 163 L 400.5 163 Q 401.3 161.3 402 162.5 Q 402.5 164.4 401.5 164 L 374.5 164 Q 373 163 375.5 162 Z " /><path fill="rgb(0,6,100)" stroke="rgb(0,6,100)" stroke-width="1" opacity="0.996078431372549" d="M 440.5 162 L 444 163.5 L 443.5 164 L 414.5 164 L 414.5 163 L 439.5 163 L 440.5 162 Z " /><path fill="rgb(0,6,100)" stroke="rgb(0,6,100)" stroke-width="1" opacity="0.996078431372549" d="M 456.5 162 L 457.5 163 Q 458.5 161 459.5 163 L 475.5 163 L 476 163.5 L 475.5 164 L 456 164 L 456.5 162 Z " /><path fill="rgb(0,6,100)" stroke="rgb(0,6,100)" stroke-width="1" opacity="0.996078431372549" d="M 488.5 162 L 489.5 163 Q 490.5 161 491.5 163 L 513.5 163 L 514.5 162 Q 517 163 515.5 164 L 488.5 164 Q 487.2 164.3 488.5 162 Z " /><path fill="rgb(0,6,100)" stroke="rgb(0,6,100)" stroke-width="1" opacity="0.996078431372549" d="M 614.5 162 L 615.5 163 L 663.5 163 Q 664.5 161 665.5 163 L 668 163.5 L 667.5 164 L 611.5 164 L 611.5 163 Q 614 163.5 614.5 162 Z " /><path fill="rgb(0,68,156)" stroke="rgb(0,68,156)" stroke-width="1" opacity="0.996078431372549" d="M 305.5 101 L 306 101.5 L 306 161.5 L 307 162.5 L 306.5 163 L 304 160.5 L 304 103.5 L 305.5 101 Z " /><path fill="rgb(0,68,156)" stroke="rgb(0,68,156)" stroke-width="1" opacity="0.996078431372549" d="M 401.5 101 L 402 101.5 L 402 161.5 Q 401 163 400 160.5 L 401 159.5 L 401 101.5 L 401.5 101 Z " /><path fill="rgb(0,68,156)" stroke="rgb(0,68,156)" stroke-width="1" opacity="0.996078431372549" d="M 239.5 102 L 240 102.5 L 240 160.5 L 239 160.5 L 239 102.5 L 239.5 102 Z " /><path fill="rgb(0,68,156)" stroke="rgb(0,68,156)" stroke-width="1" opacity="0.996078431372549" d="M 417.5 103 L 418 103.5 L 418 160.5 L 417 160.5 L 417 103.5 L 417.5 103 Z " /><path fill="rgb(0,68,156)" stroke="rgb(0,68,156)" stroke-width="1" opacity="0.996078431372549" d="M 419.5 103 L 420 103.5 L 420 160.5 L 419 160.5 L 419 103.5 L 419.5 103 Z " /><path fill="rgb(0,68,156)" stroke="rgb(0,68,156)" stroke-width="1" opacity="0.996078431372549" d="M 512.5 103 L 513 103.5 L 513 160.5 L 512 160.5 L 512 103.5 L 512.5 103 Z " /><path fill="rgb(0,68,156)" stroke="rgb(0,68,156)" stroke-width="1" opacity="0.996078431372549" d="M 615.5 103 L 616 103.5 L 616 160.5 Q 615 163 614 161.5 L 615 160.5 L 615 103.5 L 615.5 103 Z " /><path fill="rgb(0,68,156)" stroke="rgb(0,68,156)" stroke-width="1" opacity="0.996078431372549" d="M 679.5 104 L 680 104.5 L 680 159.5 L 679 159.5 L 679 104.5 L 679.5 104 Z " /><path fill="rgb(0,68,156)" stroke="rgb(0,68,156)" stroke-width="1" opacity="0.996078431372549" d="M 343.5 107 L 345 108.5 L 345.5 112 L 346 110 L 348 110.5 Q 346 111.5 348 112.5 L 348 119.5 Q 350 120.5 349 124.5 L 348 124.5 Q 348.5 122 347 121.5 L 347 114.5 L 345.5 113 L 344 113 L 344 108.5 Q 342.3 107.8 343.5 107 Z " /><path fill="rgb(0,68,156)" stroke="rgb(0,68,156)" stroke-width="1" opacity="0.996078431372549" d="M 268 124 L 270.5 125 Q 271.2 123.3 272 124.5 Q 270.3 125.2 271.5 126 L 285.5 126 L 288 127 L 288 133.5 Q 288.3 134.8 286 134 L 286 127 L 271.5 127 Q 270.6 125.3 268 126 L 268 124 Z " /><path fill="rgb(0,68,156)" stroke="rgb(0,68,156)" stroke-width="1" opacity="0.996078431372549" d="M 642.5 124 L 645.5 126 L 660.5 126 L 662 127.5 L 662 133.5 L 660.5 135 Q 659.2 134.2 661 133.5 L 661 127 L 645.5 127 L 642 124.5 L 642.5 124 Z " /><path fill="rgb(0,68,156)" stroke="rgb(0,68,156)" stroke-width="1" opacity="0.996078431372549" d="M 708.5 124 L 709.5 125 Q 710.2 123.3 711 124.5 Q 710.5 126.4 711.5 126 L 726.5 126 L 726.5 127 L 710.5 127 L 708 126 L 708.5 124 Z " /><path fill="rgb(0,68,156)" stroke="rgb(0,68,156)" stroke-width="1" opacity="0.996078431372549" d="M 558.5 125 L 559.5 126 Q 560.3 124.3 561 125.5 L 559 127.5 L 560 128.5 L 560 134.5 Q 559.7 135.8 562 135 L 562 136.5 L 561.5 137 L 559 134.5 Q 559.5 132 558 131.5 L 558 125.5 L 558.5 125 Z " /><path fill="rgb(0,68,156)" stroke="rgb(0,68,156)" stroke-width="1" opacity="0.996078431372549" d="M 377.5 126 L 378 126.5 L 378 160.5 L 377 160.5 L 377 126.5 L 377.5 126 Z " /><path fill="rgb(0,68,156)" stroke="rgb(0,68,156)" stroke-width="1" opacity="0.996078431372549" d="M 442.5 129 L 443 134.5 L 444 135.5 L 444 162 Q 441.7 162.8 442 161.5 L 442 129.5 L 442.5 129 Z " /><path fill="rgb(0,68,156)" stroke="rgb(0,68,156)" stroke-width="1" opacity="0.996078431372549" d="M 440.5 130 L 441 130.5 L 441 161.5 L 440 161.5 L 440 130.5 L 440.5 130 Z " /><path fill="rgb(0,68,156)" stroke="rgb(0,68,156)" stroke-width="1" opacity="0.996078431372549" d="M 369.5 133 L 370 133.5 L 368 135.5 L 368 138.5 L 370 141.5 Q 369 143 368 140.5 L 367.5 139 L 366.5 142 L 366 136.5 L 367 134 L 369.5 133 Z " /><path fill="rgb(0,68,156)" stroke="rgb(0,68,156)" stroke-width="1" opacity="0.996078431372549" d="M 645.5 153 L 661.5 153 L 662 153.5 L 661.5 154 L 645.5 154 L 645.5 153 Z " /><path fill="rgb(0,68,156)" stroke="rgb(0,68,156)" stroke-width="1" opacity="0.996078431372549" d="M 663.5 153 L 664.5 154 L 665.5 153 L 666.5 154 Q 667.2 152.3 668 153.5 L 668 161.5 Q 668.3 162.8 666 162 L 665.5 154 L 664.5 162 L 664 161.5 L 664 154.5 Q 662.3 153.7 663.5 153 Z " /><path fill="rgb(9,111,179)" stroke="rgb(9,111,179)" stroke-width="1" opacity="1" d="M 240.5 101 L 242.5 102 L 285.5 102 L 286 102.5 Q 284 103.5 285 107.5 Q 286.8 108.3 285.5 109 Q 283 108.5 282.5 110 L 269.5 110 Q 269 108.5 266.5 109 L 263 112.5 L 263 124.5 Q 263.9 126.5 266 126 Q 264.7 129.3 269.5 128 L 270.5 127 L 284.5 127 Q 287.3 128.3 286 133.5 Q 285.2 134.7 284.5 133 L 283.5 134 L 282.5 133 L 273.5 133 L 272.5 134 Q 271.5 132 267.5 133 L 263 136.5 L 263 151.5 L 265.5 154 L 267.5 155 L 271.5 155 Q 272.5 153 273.5 155 L 286.5 155 L 289 154 L 289 160.5 L 290 161.5 Q 289.2 162.7 288.5 161 L 287.5 162 L 242.5 162 Q 241.5 162.4 242 160.5 L 243 159.5 L 243 104.5 L 240 101.5 L 240.5 101 Z " /><path fill="rgb(9,111,179)" stroke="rgb(9,111,179)" stroke-width="1" opacity="1" d="M 307.5 101 L 308.5 102 L 339.5 102 Q 340.3 100.3 341 101.5 Q 339.3 103.5 340 107 L 343 107 L 343 118.5 Q 342.6 119.5 344.5 119 L 347 122.5 Q 345.2 123.3 346 126.5 Q 348.5 127.5 348 130 L 352.5 129 Q 353 130.5 355.5 130 L 359 125.5 Q 357.2 124.7 358.5 124 Q 361.5 124.5 362 122.5 L 362 111.5 Q 366.3 109.9 365 104 Q 362 105.3 363 101.5 Q 363.7 100.2 364.5 102 L 397.5 102 L 398.5 101 L 399 101.5 L 397 103.5 L 397 160.5 L 398 161.5 Q 397.2 162.7 396.5 161 L 395.5 162 L 378.5 162 L 378 161.5 L 380 161 L 380 129.5 L 381 128.5 L 381 124 L 379.5 124 L 376.5 122 L 372.5 122 L 370 123 Q 371.1 125.7 368.5 125 L 365 128.5 L 365 141 L 362 141 L 362 152.5 Q 362 153.4 359 153 L 359 155.5 Q 361 156.5 360 160.5 L 358.5 162 L 346.5 162 Q 345.2 161.2 347 160.5 L 345 157.5 L 345 149.5 Q 342.5 148.5 343 146 Q 340 147 341 144 L 343 144 L 343 138.5 L 339.5 136 Q 338.8 137.8 338 136.5 L 338 129.5 Q 339.8 128.8 339 125.5 L 335.5 122 L 330.5 122 L 327 125.5 L 327 128.5 L 328 129.5 L 328 160.5 L 326.5 162 Q 325.5 160 324.5 162 L 307.5 162 L 306 160.5 L 306 103.5 L 307.5 101 Z " /><path fill="rgb(9,111,179)" stroke="rgb(9,111,179)" stroke-width="1" opacity="1" d="M 420.5 101 L 422.5 102 L 450.5 102 Q 451.5 100 455.5 101 Q 456.7 101.7 455 102.5 L 456 103.5 Q 457.2 109.7 455 112.5 Q 455.9 114.5 458 114 L 458 124.5 L 464.5 131 Q 471.5 132.5 473 128.5 L 473 116.5 L 472 114.5 L 473 114.5 Q 472.2 117.1 475.5 116 Q 478 115 477 110.5 L 476 109.5 L 476 101 L 480.5 101 L 481.5 102 L 509.5 102 L 511.5 101 L 512 101.5 L 510 103.5 L 510 160.5 Q 509.6 161.5 511.5 161 L 511.5 162 L 494.5 162 L 493.5 161 L 491.5 162 Q 490.2 161.2 492 160.5 L 492 133.5 L 493 131 L 491 130.5 L 493 128.5 L 493 124 Q 490.3 125.1 491 122.5 Q 489.8 119.8 484.5 121 L 481 123.5 L 481 129.5 L 482 130.5 L 477 134.5 Q 476.5 137 478 137.5 Q 476 138.5 478 139.5 L 478 144.5 Q 478.4 145.5 476.5 145 L 474 146 L 474 151.5 L 475 152.5 Q 473 153.5 475 154.5 Q 475.8 156.8 473.5 156 L 471 158.5 L 471 160.5 Q 472.7 161.2 471.5 162 Q 470.5 160 469.5 162 L 462.5 162 L 461.5 161 L 459.5 162 L 459 161.5 L 461 159.5 L 461 157.5 L 458 154.5 L 458 145.5 L 456.5 144 Q 454.3 144.8 455 142.5 L 454 141.5 L 454 132 Q 451.3 133.1 452 130.5 L 451 129.5 L 451 126 L 449 126 Q 450.1 123.3 447.5 124 Q 446.5 126 445.5 124 L 441 124 L 441 126 Q 438.7 125.3 439 126.5 L 439 160.5 Q 440.8 161.2 439.5 162 Q 438.5 160 437.5 162 L 421.5 162 L 421 161.5 L 422 160.5 L 422 103.5 L 420 101.5 L 420.5 101 Z " /><path fill="rgb(9,111,179)" stroke="rgb(9,111,179)" stroke-width="1" opacity="1" d="M 526.5 101 L 527.5 102 L 549.5 102 Q 550.8 99.8 552 102.5 L 551 104.5 Q 553 105.5 551 106.5 L 552.5 109 Q 554.4 108.5 554 109.5 L 554 123.5 Q 554.9 125.5 557 125 L 557 140.5 L 560.5 144 L 565.5 144 L 569 141.5 L 569 136 L 571.5 136 Q 573.5 135.5 573 132.5 Q 571 131.5 573 130.5 Q 574 126.5 572 125.5 L 572 117 L 576 116 L 576 107.5 L 575 106.5 L 576 105.5 L 575 104.5 Q 577 103.5 575 102.5 L 576.5 101 L 577.5 102 L 599.5 102 Q 600 100.5 602.5 101 L 602.5 102 Q 599.5 101.5 599 103.5 L 599 111.5 Q 599.4 112.5 597.5 112 L 596 113.5 L 596 124 Q 593.1 123.5 592 126.5 L 592 134.5 Q 590.3 135.4 591 138 Q 588.7 137.3 589 138.5 L 589 148.5 Q 588.1 150.5 586 150 L 586 160.5 L 584.5 162 L 546.5 162 L 545.5 161 L 543.5 162 Q 542.2 161.2 544 160.5 L 543 158.5 L 544 157.5 L 544 152 L 540 151 L 541 141 L 537 140.5 Q 539 139.5 537 138.5 L 537 130.5 L 535 128.5 L 534.5 126 L 533.5 128 L 533 126.5 L 534 125.5 Q 532.2 124.7 533.5 124 Q 534.3 125.7 535 124.5 L 535 119 L 532.5 119 L 530 118 L 530 111.5 L 531 109.5 Q 529.9 106.5 527 107 L 527 102.5 Q 525.3 101.7 526.5 101 Z " /><path fill="rgb(9,111,179)" stroke="rgb(9,111,179)" stroke-width="1" opacity="1" d="M 616.5 101 L 618.5 102 L 659.5 102 L 661.5 101 L 662 101.5 L 660 103.5 L 660 107.5 L 661 109.5 Q 660.2 110.7 659.5 109 L 658.5 110 L 643.5 110 L 641.5 109 L 637 112.5 Q 636.5 115 638 115.5 L 638 121.5 L 637 123.5 Q 638.1 126.5 641 126 Q 639.8 129 643.5 128 L 644.5 127 L 660.5 127 Q 661.7 127.7 660 128.5 L 660 133.5 Q 660.4 134.5 658.5 134 L 657.5 133 L 647.5 133 Q 646.5 135 645.5 133 L 641.5 133 Q 640.5 135.5 638 135 L 637 137.5 L 637 139.5 L 638 140.5 L 638 147.5 Q 636.5 148 637 150.5 L 638 153 Q 640.5 152.5 641.5 155 L 645.5 155 Q 646.5 153 647.5 155 L 661.5 155 L 662.5 154 L 663 154.5 L 663 160.5 L 664 161.5 Q 663.2 162.7 662.5 161 L 661.5 162 L 619.5 162 L 618.5 161 L 616.5 162 L 616 161.5 L 618 159.5 L 618 104.5 L 616 101.5 L 616.5 101 Z " /><path fill="rgb(9,111,179)" stroke="rgb(9,111,179)" stroke-width="1" opacity="1" d="M 680.5 101 L 682.5 102 L 726.5 102 Q 727.3 100.3 728 101.5 L 727 102.5 L 727 108.5 Q 728.8 109.3 727.5 110 L 725.5 109 L 724.5 110 L 710.5 110 L 709.5 109 Q 708.5 111 707.5 109 L 705 111.5 L 704 113.5 L 705 114.5 L 705 122.5 L 704 123.5 L 706 125.5 Q 705.3 127.8 707.5 127 Q 708 128.5 710.5 128 L 711.5 127 L 724.5 127 Q 725.7 127.7 724 128.5 L 724 133.5 Q 724.4 134.5 722.5 134 L 721.5 133 L 707.5 133 L 705 136.5 L 705 151.5 L 707.5 155 L 725.5 155 L 726.5 154 L 727 154.5 L 727 160.5 L 728 161.5 Q 727.2 162.7 726.5 161 L 725.5 162 L 683.5 162 L 682.5 161 L 680.5 162 L 680.5 161 Q 682.4 161.5 682 160.5 L 682 103.5 L 680 101.5 L 680.5 101 Z " /><path fill="rgb(9,111,179)" stroke="rgb(9,111,179)" stroke-width="1" opacity="1" d="M 415.5 103 L 416 103.5 L 416 160.5 L 415 160.5 L 415 103.5 L 415.5 103 Z " /><path fill="rgb(9,111,179)" stroke="rgb(9,111,179)" stroke-width="1" opacity="1" d="M 611.5 103 L 612 103.5 L 612 160.5 L 611 160.5 L 611 103.5 L 611.5 103 Z " /><path fill="rgb(0,55,150)" stroke="rgb(0,55,150)" stroke-width="1" opacity="1" d="M 614.5 102 L 615 102.5 L 615 160.5 L 614 160.5 L 614 102.5 L 614.5 102 Z " /><path fill="rgb(0,55,150)" stroke="rgb(0,55,150)" stroke-width="1" opacity="1" d="M 514.5 103 L 515 103.5 L 515 160.5 L 514 160.5 L 514 103.5 L 514.5 103 Z " /><path fill="rgb(0,55,150)" stroke="rgb(0,55,150)" stroke-width="1" opacity="1" d="M 271.5 110 L 285.5 110 L 286 110.5 L 285.5 111 L 272.5 111 L 270.5 112 Q 269 111 271.5 110 Z " /><path fill="rgb(0,55,150)" stroke="rgb(0,55,150)" stroke-width="1" opacity="1" d="M 645.5 110 L 660.5 110 L 661 110.5 L 660.5 111 L 647.5 111 Q 647 112.5 644.5 112 Q 643 111 645.5 110 Z " /><path fill="rgb(0,55,150)" stroke="rgb(0,55,150)" stroke-width="1" opacity="1" d="M 270.5 124 Q 271.5 126 272.5 124 L 274.5 125 L 285.5 125 L 288 126.5 L 286.5 127 L 285.5 126 L 271.5 126 Q 269 125 270.5 124 Z " /><path fill="rgb(0,55,150)" stroke="rgb(0,55,150)" stroke-width="1" opacity="1" d="M 644.5 124 Q 647.8 123.3 648.5 125 L 660.5 125 L 662 126.5 Q 661.2 127.7 660.5 126 L 645.5 126 Q 643 125 644.5 124 Z " /><path fill="rgb(0,55,150)" stroke="rgb(0,55,150)" stroke-width="1" opacity="1" d="M 490.5 128 L 491 128.5 L 491 162 L 493 162.5 L 491.5 163 L 490 161.5 L 490 128.5 L 490.5 128 Z " /><path fill="rgb(0,55,150)" stroke="rgb(0,55,150)" stroke-width="1" opacity="1" d="M 488.5 133 L 489 133.5 L 489 161.5 L 488 161.5 L 488 133.5 L 488.5 133 Z " /><path fill="rgb(0,55,150)" stroke="rgb(0,55,150)" stroke-width="1" opacity="1" d="M 328.5 134 L 329 134.5 L 329 159.5 L 328 159.5 L 328 134.5 L 328.5 134 Z " /><path fill="rgb(0,55,150)" stroke="rgb(0,55,150)" stroke-width="1" opacity="1" d="M 375.5 138 L 376 138.5 L 376 160.5 L 375 160.5 L 375 138.5 L 375.5 138 Z " /><path fill="rgb(0,55,150)" stroke="rgb(0,55,150)" stroke-width="1" opacity="1" d="M 239.5 162 L 287.5 162 L 288 162.5 L 287.5 163 L 239.5 163 L 239.5 162 Z " /><path fill="rgb(0,55,150)" stroke="rgb(0,55,150)" stroke-width="1" opacity="1" d="M 307.5 162 L 324.5 162 L 325 162.5 L 324.5 163 L 307.5 163 L 307.5 162 Z " /><path fill="rgb(0,55,150)" stroke="rgb(0,55,150)" stroke-width="1" opacity="1" d="M 377.5 162 L 395.5 162 L 396 162.5 L 395.5 163 L 377.5 163 L 377.5 162 Z " /><path fill="rgb(0,55,150)" stroke="rgb(0,55,150)" stroke-width="1" opacity="1" d="M 494.5 162 L 512.5 162 L 513 162.5 L 512.5 163 L 494.5 163 L 494.5 162 Z " /><path fill="rgb(0,55,150)" stroke="rgb(0,55,150)" stroke-width="1" opacity="1" d="M 543.5 162 L 586.5 162 L 587 162.5 L 586.5 163 L 543.5 163 L 543.5 162 Z " /><path fill="rgb(0,55,150)" stroke="rgb(0,55,150)" stroke-width="1" opacity="1" d="M 619.5 162 L 661.5 162 L 662 162.5 L 661.5 163 L 619.5 163 L 619.5 162 Z " /><path fill="rgb(0,55,150)" stroke="rgb(0,55,150)" stroke-width="1" opacity="1" d="M 683.5 162 L 725.5 162 L 726 162.5 L 725.5 163 L 683.5 163 L 683.5 162 Z " /><path fill="rgb(240,140,32)" stroke="rgb(240,140,32)" stroke-width="1" opacity="0.996078431372549" d="M 601.5 54 Q 604 53.5 604.5 55 L 605.5 54 L 664.5 54 Q 665 55.5 667.5 55 L 669.5 54 L 670.5 55 L 685 55 Q 684.3 57.3 685.5 57 L 694.5 57 L 695.5 58 L 704.5 58 L 705.5 59 L 712 59 Q 711.3 61.3 712.5 61 L 718.5 61 Q 719.4 62.8 722 62 L 722.5 64 Q 723.5 62 724.5 64 Q 727 63.5 727.5 65 L 731.5 65 L 734 66 Q 732.8 69 736.5 68 Q 738.3 70.2 742 70.5 Q 739.8 71.8 742.5 73 Q 743.3 71.2 744 72.5 L 744.5 76 Q 745.5 74 746.5 76 Q 749.1 75.3 748 78 L 746 78.5 L 749 79.5 Q 747.3 80.2 748.5 81 L 751 81 L 751 88 Q 748.3 86.9 749 89.5 L 751 89.5 L 751 91 L 746 91 L 746 92.5 Q 748 93.5 746 94.5 Q 746.3 97.3 745.5 97 L 700 97 L 700 88.5 Q 700.3 87.3 698 88 L 697.5 90 L 696.5 86 Q 695.8 87.8 695 86.5 Q 696.1 83.2 693.5 84 L 691.5 81 L 690.5 83 L 690 80 L 685 79 Q 686.3 76 682.5 77 Q 680.3 74 675 75 L 675 73 L 670.5 73 L 666.5 70 L 661.5 70 L 660.5 69 L 654.5 69 L 653.5 68 L 646 68 Q 646.8 65.7 645.5 66 L 636.5 66 L 635.5 65 L 621.5 65 L 620.5 64 L 547.5 64 L 546.5 65 L 527.5 65 L 526.5 66 L 513 66 Q 513.8 68.3 512.5 68 L 500.5 68 L 499.5 69 L 488.5 69 L 487.5 70 L 478 70 Q 478.8 72.3 477.5 72 L 468.5 72 L 467.5 73 L 458 73 Q 458.8 75.3 457.5 75 L 451.5 75 L 450.5 76 L 443.5 76 L 442.5 77 L 436 77 L 435.5 79 L 434.5 77 L 434 79 L 428.5 79 L 427.5 80 L 421.5 80 L 420.5 81 L 414 81 Q 414.8 83.3 413.5 83 L 407.5 83 L 406.5 84 L 402 84 L 402 86 L 396.5 86 L 395.5 87 L 390.5 87 L 389.5 88 L 385 88 L 385 90 L 380.5 90 L 379.5 91 L 374.5 91 L 373.5 92 L 368 92 L 368 94 L 363.5 94 Q 362.6 95.8 360 95 L 359.5 97 L 358.5 95 L 358 97 L 343.5 97 Q 342.3 97.3 343 95 L 349.5 95 L 350.5 94 L 355 94 L 355 92 L 359.5 92 L 360.5 91 L 364.5 91 L 365.5 90 L 370 90 L 370 88 L 374.5 88 L 375.5 87 L 381.5 87 L 382.5 86 L 387 86 L 387 84 L 391.5 84 L 392.5 83 L 399 83 L 399 81 L 404.5 81 L 405.5 80 L 411.5 80 L 412.5 79 L 419 79 L 419 77 L 424.5 77 L 425.5 76 L 432.5 76 L 433.5 75 L 439 75 Q 438.3 72.7 439.5 73 L 448.5 73 L 449.5 72 L 456 72 Q 455.3 69.7 456.5 70 L 464.5 70 L 465.5 69 L 472.5 69 L 473.5 68 L 483 68 Q 482.3 65.7 483.5 66 L 489.5 66 L 490.5 65 L 502.5 65 L 503.5 64 L 513 64 Q 512.3 61.7 513.5 62 L 521.5 62 L 522.5 61 L 535 61 Q 534.3 58.7 535.5 59 L 546.5 59 L 547.5 58 L 561.5 58 L 562.5 57 L 579 57 Q 578.3 54.7 579.5 55 L 600.5 55 L 601.5 54 Z " /><path fill="rgb(240,140,32)" stroke="rgb(240,140,32)" stroke-width="1" opacity="0.996078431372549" d="M 229.5 138 Q 232.3 137.8 232 138.5 L 232 164.5 L 231 164.5 L 231 139.5 L 230.5 139 L 230 139.5 L 230 167 L 242 167 L 242 174.5 Q 242.7 175.7 243.5 174 L 245.5 176 L 247 176 L 247 179 L 252 179 L 252 181.5 L 254 181.5 L 254 183 L 257.5 183 L 259.5 185 Q 262 184.5 262.5 186 L 271 187 Q 269.8 190 273.5 189 L 274.5 190 L 280.5 190 L 281.5 191 L 289 191 Q 288.3 193.3 289.5 193 L 296.5 193 L 297.5 194 L 309 194 Q 308.3 196.3 309.5 196 L 327.5 196 L 328.5 197 L 381.5 197 L 382.5 196 L 404 196 Q 403.3 193.7 404.5 194 L 420.5 194 L 421.5 193 L 434 193 Q 433.3 190.7 434.5 191 L 445.5 191 L 446.5 190 L 456.5 190 L 457.5 189 L 466 189 L 466.5 187 L 467.5 189 L 468 187 L 475.5 187 L 476.5 186 L 484.5 186 L 485.5 185 L 493 185 Q 492.3 182.7 493.5 183 L 499.5 183 L 500.5 182 L 508 182 Q 507.3 179.7 508.5 180 L 514.5 180 L 515.5 179 L 521.5 179 L 522.5 178 L 528 178 Q 527.3 175.7 528.5 176 L 534.5 176 L 535.5 175 L 541.5 175 L 542.5 174 L 547 174 L 547 172 L 551.5 172 L 552.5 171 L 559 171 L 559 169 L 563.5 169 L 564.5 168 Q 568.5 169 569.5 167 L 585.5 167 L 585.5 168 L 579.5 168 L 578.5 169 L 574 169 L 574 171 L 568.5 171 L 567.5 172 L 562 172 L 562 174 L 557.5 174 L 556.5 175 L 550.5 175 L 549.5 176 L 545 176 L 545 178 L 539.5 178 L 538.5 179 L 532.5 179 L 531.5 180 L 525 180 Q 525.8 182.3 524.5 182 L 518.5 182 L 517.5 183 L 513 183 Q 513.8 185.3 512.5 185 L 505.5 185 L 504.5 186 L 497.5 186 L 496.5 187 L 490 187 Q 490.8 189.3 489.5 189 L 483.5 189 L 482.5 190 L 473.5 190 L 472.5 191 L 466 191 Q 466.8 193.3 465.5 193 L 456.5 193 L 455.5 194 L 446 194 Q 446.8 196.3 445.5 196 L 437.5 196 L 436.5 197 L 426.5 197 L 425.5 198 L 417 198 L 416.5 200 Q 415.5 198 414.5 200 L 404.5 200 L 403.5 201 L 390.5 201 L 389.5 202 L 375 202 Q 375.8 204.3 374.5 204 L 358.5 204 L 357.5 205 L 328 205 Q 328.8 207.3 327.5 207 L 279 207 Q 279.8 204.7 278.5 205 L 257.5 205 L 256.5 204 L 244 204 Q 244.8 201.7 243.5 202 L 236.5 202 L 235.5 201 L 228.5 201 L 227.5 200 L 222 200 L 222 198 L 217.5 198 L 216.5 197 L 213.5 197 Q 212.6 195.3 210 196 Q 211.3 193 207.5 194 Q 206.7 192.2 203.5 193 Q 202.5 190.5 200 191 L 199.5 189 Q 198.3 191.3 197 188.5 Q 198.8 187.8 197.5 187 L 195.5 187 L 193 186 L 192.5 181 L 192 183 Q 189.7 183.8 190 182.5 L 190 168 L 193 168 L 193 164 L 194.5 164 L 198 162.5 L 196 161.5 L 198.5 158 L 199.5 160 L 200.5 156 Q 201.8 158.3 203 155.5 Q 201.2 154.7 202.5 154 L 207 153 L 207 150 L 209.5 150 L 212 149 L 212 146 L 215.5 146 L 216.5 145 L 220 145 L 220 142 L 221.5 142 Q 222.4 140.3 225 141 Q 223.7 137.7 228.5 139 L 229.5 138 Z " /></svg>